<?xml version="1.0" encoding="UTF-8"?>
<svg version="1.1" xmlns="http://www.w3.org/2000/svg" width="630" height="630">
<path d="M0 0 C0.98742187 -0.00386719 1.97484375 -0.00773437 2.9921875 -0.01171875 C8.5819604 -0.00453395 14.11585825 0.20612722 19.69140625 0.609375 C25.06872422 0.99488755 30.4204625 1.23835049 35.80859375 1.3359375 C36.53244766 1.34914032 37.25630157 1.36234314 38.00209045 1.37594604 C39.52156079 1.40301043 41.04103627 1.42978751 42.56051636 1.45629883 C59.21397688 1.762475 75.81550444 2.56903784 92.4375 3.625 C93.48364471 3.69080261 94.52978943 3.75660522 95.6076355 3.82440186 C98.60198167 4.01434778 101.59597226 4.20897373 104.58984375 4.40625 C105.47474487 4.46354279 106.359646 4.52083557 107.2713623 4.5798645 C121.31833257 5.53416629 121.31833257 5.53416629 124.5 7.125 C126.62540003 7.11901296 128.75071575 7.06911988 130.875 7 C139.79404238 6.84203331 148.36971232 8.30556669 157.14160156 9.76513672 C159.53095857 10.12972391 161.91669163 10.40774148 164.3203125 10.66015625 C175.17800909 11.80300909 175.17800909 11.80300909 177.5 14.125 C179.26619587 14.3351919 181.03871338 14.49343437 182.8125 14.625 C186.15741574 14.87508716 189.27018752 15.20438837 192.5 16.125 C192.5 16.785 192.5 17.445 192.5 18.125 C193.07363281 18.05539063 193.64726562 17.98578125 194.23828125 17.9140625 C205.20117986 17.21536487 216.78630425 21.16041818 226.5 26.125 C227.62535156 26.56972656 227.62535156 26.56972656 228.7734375 27.0234375 C244.79972653 33.49824195 263.18033433 43.25897091 271.5 59.125 C271.5 59.785 271.5 60.445 271.5 61.125 C272.11488281 61.37636719 272.72976563 61.62773438 273.36328125 61.88671875 C275.85236826 63.3292061 276.48164546 64.3633697 277.6875 66.9375 C278.01105469 67.60394531 278.33460938 68.27039063 278.66796875 68.95703125 C279.5 71.125 279.5 71.125 279.92524147 73.31141567 C280.48547171 76.23404111 280.48547171 76.23404111 281.45334435 79.47924137 C284.36675459 89.86373623 285.08538571 99.41501788 285.04931641 110.15991211 C285.05803746 111.9049465 285.06841255 113.64997327 285.08029175 115.39498901 C285.10681898 120.08780734 285.10825687 124.78030102 285.10316515 129.47317958 C285.10100661 133.41835281 285.11084169 137.3634629 285.12037599 141.30862242 C285.14248292 150.6358919 285.14349089 159.96300027 285.13134766 169.2902832 C285.11929909 178.84360054 285.14382973 188.39632644 285.18648779 197.94954294 C285.22198448 206.20924888 285.23368064 214.46876892 285.22721231 222.72854811 C285.2236252 227.63597286 285.22846247 232.54297656 285.25664139 237.45033073 C285.3633928 257.72232294 285.05255123 276.28007713 279.11326218 295.84199715 C277.50793619 301.81817497 276.90889524 308.0102919 279.7890625 313.6484375 C280.82406892 315.18310219 281.9078148 316.68629541 283.04296875 318.1484375 C285.10692977 320.94834172 285.71920332 323.76156813 286.5 327.125 C287.24968066 329.29907391 288.02557442 331.46167212 288.81640625 333.62109375 C293.57687648 351.05801614 291.16205498 372.11037024 288.75 389.875 C288.59313721 391.05666748 288.43627441 392.23833496 288.2746582 393.45581055 C287.10969305 401.24515309 285.02042204 408.08415592 281.5 415.125 C280.84 415.125 280.18 415.125 279.5 415.125 C279.45101562 416.00414062 279.40203125 416.88328125 279.3515625 417.7890625 C278.27609819 422.00211995 276.10002843 423.83411863 272.875 426.5 C271.77606225 427.46059399 270.67970009 428.42414252 269.5859375 429.390625 C269.05452148 429.85662109 268.52310547 430.32261719 267.97558594 430.80273438 C262.73878296 435.49540892 259.20046002 440.12016931 256.59765625 446.6328125 C255.26559201 449.65721459 253.63171441 452.41334038 251.9375 455.25 C249.4274682 459.46211344 247.26573375 463.55486559 245.5 468.125 C244.84 468.125 244.18 468.125 243.5 468.125 C243.35884766 468.94097656 243.35884766 468.94097656 243.21484375 469.7734375 C242.29453533 472.80090017 240.78199617 475.0974716 239.0625 477.75 C238.44503906 478.71164062 237.82757812 479.67328125 237.19140625 480.6640625 C235.5 483.125 235.5 483.125 233.5 485.125 C232.51 485.125 231.52 485.125 230.5 485.125 C230.17 486.445 229.84 487.765 229.5 489.125 C228.84 489.125 228.18 489.125 227.5 489.125 C227.2525 489.70765625 227.005 490.2903125 226.75 490.890625 C225.31474554 493.45614236 223.72336987 494.96224798 221.5 496.875 C220.79875 497.48859375 220.0975 498.1021875 219.375 498.734375 C217.5 500.125 217.5 500.125 215.5 500.125 C215.35075073 501.05421265 215.35075073 501.05421265 215.19848633 502.00219727 C214.5 504.125 214.5 504.125 211.32421875 506.08984375 C209.95282868 506.76293101 208.5732985 507.41960054 207.1875 508.0625 C206.4641748 508.41022461 205.74084961 508.75794922 204.99560547 509.11621094 C198.9208219 512.00666461 192.75465611 514.64886365 186.5 517.125 C185.77707764 517.42913818 185.05415527 517.73327637 184.30932617 518.04663086 C152.91151436 531.0705187 114.79168471 534.00604486 81.56787109 527.48266602 C79.32001071 527.09386844 77.08231659 526.85038353 74.8125 526.625 C60.71390281 525.14787425 41.25076079 517.15752489 29.5 509.125 C29.17 508.135 28.84 507.145 28.5 506.125 C26.84109647 505.439244 25.17304463 504.77549511 23.5 504.125 C21.24609375 502.34765625 21.24609375 502.34765625 18.9375 500.1875 C17.64005859 499.00027344 17.64005859 499.00027344 16.31640625 497.7890625 C14.33212487 495.91211395 12.39033391 494.02061708 10.46484375 492.0859375 C9.95058838 491.58312256 9.43633301 491.08030762 8.90649414 490.56225586 C7.90855718 489.58499988 6.92619188 488.59150361 5.96264648 487.58032227 C3.16848942 484.87046957 1.10535329 483.7953119 -2.70703125 483.6875 C-7.50281421 484.24066961 -8.45731669 485.45817653 -11.5 489.125 C-15.55677108 493.43171433 -19.51046358 496.90259107 -24.5 500.125 C-25.67853329 501.13211027 -26.84470486 502.15381487 -28 503.1875 C-30.9948315 505.79821181 -33.87211283 507.45059054 -37.5 509.125 C-39.22951444 510.12439839 -40.95864072 511.12446867 -42.6875 512.125 C-47.44551641 514.7582036 -51.99114203 516.29948803 -57.28515625 517.484375 C-59.6811212 517.98425968 -59.6811212 517.98425968 -61.5 520.125 C-65.91160581 521.43332878 -70.43781803 522.29476025 -74.9375 523.25 C-76.17177734 523.52714844 -77.40605469 523.80429687 -78.67773438 524.08984375 C-85.36646039 525.52592136 -91.56349952 526.42514035 -98.41040039 526.12841797 C-100.56117796 525.96864064 -100.56117796 525.96864064 -102.5 527.125 C-105.32284465 527.22677807 -108.11475839 527.2667125 -110.9375 527.25 C-111.79005371 527.24516602 -112.64260742 527.24033203 -113.52099609 527.23535156 C-116.1809993 527.21088951 -118.8402963 527.17154853 -121.5 527.125 C-122.27649902 527.11243164 -123.05299805 527.09986328 -123.85302734 527.08691406 C-144.33301416 526.65183088 -164.35159847 523.47779154 -183.5 516.125 C-187.19837881 514.72198512 -190.88245343 513.32599031 -194.64453125 512.1015625 C-203.44548381 509.0916608 -217.05061637 503.426325 -221.6953125 494.94140625 C-221.96085937 494.34199219 -222.22640625 493.74257813 -222.5 493.125 C-223.81403276 492.42105388 -225.1520257 491.76154342 -226.5 491.125 C-231.87718265 487.18173272 -235.53730373 482.44709656 -239.5 477.125 C-240.36238281 476.04412109 -240.36238281 476.04412109 -241.2421875 474.94140625 C-246.2175069 468.64488959 -246.2175069 468.64488959 -246.5 464.125 C-247.49 463.795 -248.48 463.465 -249.5 463.125 C-250.47973633 461.45776367 -250.47973633 461.45776367 -251.33203125 459.29296875 C-251.65300781 458.49955078 -251.97398437 457.70613281 -252.3046875 456.88867188 C-252.63726562 456.03853516 -252.96984375 455.18839844 -253.3125 454.3125 C-256.07385365 447.47070742 -258.99101232 440.88650885 -262.46875 434.375 C-263.5 432.125 -263.5 432.125 -263.5 429.125 C-264.06976563 429.03089844 -264.63953125 428.93679688 -265.2265625 428.83984375 C-272.50957738 426.54982361 -277.62075473 419.15697063 -281.15625 412.7734375 C-292.6875918 390.04596733 -296.51990429 355.07073132 -289.5 330.125 C-288.84 330.125 -288.18 330.125 -287.5 330.125 C-287.60634766 328.36542969 -287.60634766 328.36542969 -287.71484375 326.5703125 C-287.71385917 322.09048939 -286.20483357 318.86007938 -284.0625 315 C-280.39152814 307.82744372 -278.85655806 301.29784143 -279.5 293.125 C-280.49 291.64 -280.49 291.64 -281.5 290.125 C-281.98657227 287.2277832 -281.98657227 287.2277832 -282.31640625 283.67578125 C-282.37779282 283.02667282 -282.43917938 282.37756439 -282.50242615 281.70878601 C-282.63161835 280.32128885 -282.7565866 278.93339296 -282.87768555 277.54516602 C-283.05554866 275.51677467 -283.24913647 273.48978091 -283.44335938 271.46289062 C-285.81331491 246.06043997 -285.68791376 220.58214694 -285.68530273 195.09521484 C-285.68522194 191.05675736 -285.69210341 187.01841446 -285.70581055 182.97998047 C-285.78038405 160.6961601 -285.59132957 138.50193938 -284.19096375 116.25595093 C-283.6964483 108.38165827 -283.39939107 100.58048062 -283.625 92.6875 C-283.84003785 78.91292394 -280.16198548 65.29551103 -270.5 55.125 C-269.84 55.125 -269.18 55.125 -268.5 55.125 C-268.17 53.805 -267.84 52.485 -267.5 51.125 C-266.84 51.125 -266.18 51.125 -265.5 51.125 C-265.273125 50.38894531 -265.04625 49.65289062 -264.8125 48.89453125 C-263.22418173 45.54299061 -261.42256686 44.0681439 -258.5 41.8125 C-257.613125 41.11511719 -256.72625 40.41773438 -255.8125 39.69921875 C-253.5 38.125 -253.5 38.125 -251.5 38.125 C-251.17 37.135 -250.84 36.145 -250.5 35.125 C-245.24285714 31.125 -245.24285714 31.125 -241.5 31.125 C-241.005 29.64 -241.005 29.64 -240.5 28.125 C-229.30164331 20.14138068 -212.99040081 17.24038355 -199.5 18.125 C-199.5 17.465 -199.5 16.805 -199.5 16.125 C-172.24394779 6.87615966 -143.00812643 5.76137268 -114.5 5 C-111.87587199 4.92216457 -109.25176729 4.84354007 -106.62768555 4.76416016 C-98.91886233 4.53499598 -91.20955488 4.32780474 -83.5 4.125 C-81.27685341 4.06518047 -79.05370878 4.00528824 -76.83056641 3.9453125 C-70.99139022 3.78927693 -65.1520564 3.64107448 -59.3125 3.5 C-58.03451538 3.46903229 -58.03451538 3.46903229 -56.73071289 3.43743896 C-54.30620316 3.38007132 -51.88165461 3.32576886 -49.45703125 3.2734375 C-48.70616241 3.25675018 -47.95529358 3.24006287 -47.18167114 3.22286987 C-43.36423368 3.14740872 -39.5538221 3.1239368 -35.73583984 3.17285156 C-34.96310226 3.18103912 -34.19036469 3.18922668 -33.39421082 3.19766235 C-31.93777284 3.2163075 -30.48140781 3.24364015 -29.02534485 3.28158569 C-25.01532909 3.33332544 -22.12553404 2.81374716 -18.5 1.125 C-12.35361021 -0.10117372 -6.24023939 -0.02369711 0 0 Z " fill="#FEFEFD" transform="translate(315.5,49.875)"/>
<path d="M0 0 C1.46654778 0.00290794 1.46654778 0.00290794 2.96272278 0.00587463 C18.34795591 0.11067977 33.72327062 0.84504142 49.09344482 1.48474121 C52.48645413 1.62495965 55.87962566 1.76098574 59.27281094 1.89686871 C142.82410397 5.24346781 142.82410397 5.24346781 169.44921875 12.15234375 C171.74499791 12.62441127 174.04598647 13.06071388 176.34912109 13.49536133 C192.20851365 16.5036087 207.44120659 19.84871512 221.44921875 28.15234375 C222.43277344 28.7246875 223.41632813 29.29703125 224.4296875 29.88671875 C229.88106926 33.56817137 232.08626551 36.65269415 233.63671875 43.08984375 C234.63672305 49.62134038 234.35019484 55.14727484 232.9140625 61.53125 C231.58105756 69.04760557 232.31447501 75.89421502 234.44921875 83.15234375 C234.16274342 85.4918923 233.8187234 87.82446448 233.44921875 90.15234375 C233.13225092 98.78031238 233.13225092 98.78031238 234.01953125 107.3359375 C234.45059055 110.16133529 234.21222557 111.47136773 233.44921875 114.15234375 C233.35706911 116.17150494 233.31920944 118.19358712 233.32421875 120.21484375 C233.32035156 121.77912109 233.32035156 121.77912109 233.31640625 123.375 C233.32784718 126.23915003 233.32784718 126.23915003 234.44921875 129.15234375 C234.56550196 131.63143807 234.62722061 134.08353026 234.64208984 136.56347656 C234.65026733 137.31700912 234.65844482 138.07054169 234.66687012 138.84690857 C234.69173645 141.34975413 234.70826466 143.85254189 234.72265625 146.35546875 C234.72797993 147.21764763 234.7333036 148.07982651 234.7387886 148.96813202 C234.76555578 153.55280161 234.78489865 158.13744396 234.79931641 162.72216797 C234.81251902 166.47340022 234.84010673 170.22407068 234.88134766 173.97509766 C235.30160909 213.06130003 235.30160909 213.06130003 230.07696533 230.92614746 C229.0320897 234.63162086 228.2554567 238.38864637 227.44921875 242.15234375 C226.78921875 242.15234375 226.12921875 242.15234375 225.44921875 242.15234375 C225.51109375 243.32796875 225.51109375 243.32796875 225.57421875 244.52734375 C225.32794584 251.6692582 223.40705316 258.2999233 221.44921875 265.15234375 C212.20921875 264.82234375 202.96921875 264.49234375 193.44921875 264.15234375 C192.78921875 261.51234375 192.12921875 258.87234375 191.44921875 256.15234375 C190.3262992 254.00726023 190.3262992 254.00726023 188.94921875 252.40234375 C185.04878277 247.50301563 183.9002113 243.80626104 183.9921875 237.53515625 C184.64394037 232.71107091 186.24540812 228.37653244 188.05078125 223.87036133 C192.7098175 212.00904028 193.96693287 200.18994393 193.82421875 187.52734375 C193.82089539 186.82244812 193.81757202 186.11755249 193.81414795 185.39129639 C193.69881395 164.31474793 193.36877195 140.53582508 184.44921875 121.15234375 C184.13597656 120.39050781 183.82273437 119.62867188 183.5 118.84375 C178.07080816 107.19823442 164.7290931 101.03641306 153.44921875 96.15234375 C144.65528367 93.41765905 134.21014961 95.28591932 125.203125 96.140625 C124.07132309 96.2444902 122.93952118 96.34835541 121.77342224 96.45536804 C119.39077102 96.67547451 117.00837102 96.89831626 114.6262207 97.1237793 C111.05293575 97.46095451 107.47874829 97.78678124 103.90429688 98.11132812 C65.39511957 101.34558468 65.39511957 101.34558468 28.9921875 113.32421875 C22.86508208 116.05617528 17.44356224 116.58308325 10.76171875 116.87109375 C7.77739091 117.12448008 5.64169609 117.62095569 2.88671875 118.71484375 C-11.73550897 123.99805742 -24.79645145 116.53956515 -37.97265625 110.61328125 C-52.8604238 104.05461609 -68.98004627 103.20610023 -84.98144531 101.53173828 C-90.73782946 100.91987638 -96.48790554 100.25543742 -102.23828125 99.58984375 C-103.33035889 99.46569092 -104.42243652 99.34153809 -105.54760742 99.21362305 C-110.0044671 98.7030512 -114.45429492 98.18736589 -118.890625 97.51953125 C-134.29838792 95.2616341 -152.74694506 92.6822928 -166.55078125 101.15234375 C-167.49824219 101.69503906 -168.44570312 102.23773438 -169.421875 102.796875 C-179.6784607 108.96195976 -187.15600978 114.64206403 -190.17320251 126.62414551 C-190.66836522 129.25384008 -191.08699457 131.88329295 -191.47265625 134.53125 C-191.69722504 135.98675514 -191.69722504 135.98675514 -191.92633057 137.47166443 C-192.23826076 139.51539765 -192.54381122 141.56011388 -192.84326172 143.60571289 C-193.29637702 146.68491425 -193.77552757 149.75923319 -194.2578125 152.83398438 C-197.39811888 173.40243552 -196.81520795 189.81790276 -189.6953125 209.51953125 C-184.18893974 226.52982832 -188.15129756 246.73696032 -189.55078125 264.15234375 C-199.22924551 264.79451673 -208.84459464 265.32065912 -218.55078125 265.15234375 C-222.46674102 259.17268165 -224.06688491 253.2802486 -225.61328125 246.33984375 C-225.87004639 245.20562988 -226.12681152 244.07141602 -226.39135742 242.90283203 C-231.85764104 217.70828122 -232.63877595 192.01800517 -233.0534668 166.33789062 C-233.11271212 162.68741158 -233.17797171 159.03707815 -233.24414062 155.38671875 C-233.44432109 143.94418872 -233.59145755 132.50298532 -233.60546875 121.05859375 C-233.60748795 120.11600708 -233.60950714 119.17342041 -233.61158752 118.20227051 C-233.60117367 107.68486804 -233.52415454 96.96918443 -232.03540039 86.54296875 C-231.39987695 81.55552665 -231.45244054 76.61017528 -231.48046875 71.58984375 C-231.47188888 69.55598101 -231.46141461 67.52212553 -231.44921875 65.48828125 C-231.4325114 62.31486806 -231.42585497 59.14310301 -231.45117188 55.96972656 C-231.47219738 52.88375564 -231.44886598 49.80067726 -231.41796875 46.71484375 C-231.43536102 45.77503662 -231.4527533 44.83522949 -231.47067261 43.86694336 C-231.35515297 37.51343503 -229.80034511 34.31280248 -225.34642029 29.77819824 C-222.90745725 27.56984849 -220.42822624 25.5484728 -217.73828125 23.65234375 C-216.80371094 22.98203125 -215.86914062 22.31171875 -214.90625 21.62109375 C-212.55078125 20.15234375 -212.55078125 20.15234375 -210.55078125 20.15234375 C-210.55078125 19.49234375 -210.55078125 18.83234375 -210.55078125 18.15234375 C-209.45378906 18.03117187 -208.35679687 17.91 -207.2265625 17.78515625 C-205.77209302 17.61625012 -204.31766821 17.44695894 -202.86328125 17.27734375 C-202.14205078 17.19871094 -201.42082031 17.12007812 -200.67773438 17.0390625 C-196.61373202 16.5565782 -193.34736674 15.72696446 -189.55078125 14.15234375 C-187.34559345 13.59856257 -185.13061238 13.12295265 -182.90625 12.65234375 C-180.70551383 12.18518914 -178.51949981 11.67766453 -176.33203125 11.15234375 C-174.90494792 10.81901042 -173.47786458 10.48567708 -172.05078125 10.15234375 C-171.3753125 9.98734375 -170.69984375 9.82234375 -170.00390625 9.65234375 C-157.37048629 6.74393052 -144.14909461 5.85400185 -131.23828125 5.08984375 C-130.21034958 5.02772705 -130.21034958 5.02772705 -129.16165161 4.96435547 C-117.46988408 4.2814255 -105.77493405 4.03434126 -94.06640625 3.875 C-93.33183008 3.86491346 -92.59725391 3.85482693 -91.84041786 3.84443474 C-84.3615649 3.74355479 -76.88274802 3.65705042 -69.40343571 3.59906673 C-41.08182022 3.45433539 -41.08182022 3.45433539 -12.93847656 0.59741211 C-8.60540248 0.02814186 -4.365842 -0.01441995 0 0 Z " fill="#FC9D00" transform="translate(314.55078125,101.84765625)"/>
<path d="M0 0 C3.38747984 -0.00437554 6.7747037 -0.01827697 10.16210938 -0.04101562 C45.5652352 -0.2733605 81.05285056 1.46361806 115.83032227 8.60742188 C146.41161697 14.82941112 175.04486537 12.05043149 205.68701172 8.14523315 C212.77227527 7.25064194 219.85321026 6.53690221 226.97485352 5.99023438 C227.83401367 5.92271973 228.69317383 5.85520508 229.57836914 5.78564453 C232.39693154 5.57992187 235.21626933 5.40800619 238.03735352 5.24023438 C239.3513916 5.15410889 240.66542969 5.0679834 242.01928711 4.97924805 C258.26190198 3.98778555 274.52152959 4.0427748 290.78735352 4.05273438 C292.3136495 4.05267822 293.83994548 4.05261715 295.36624146 4.05255127 C315.08279088 4.05887067 334.77287481 4.28473257 354.47485352 5.11523438 C355.44265747 5.15444 356.41046143 5.19364563 357.40759277 5.23403931 C382.79309756 6.29773734 382.79309756 6.29773734 389.03735352 8.24023438 C391.21716703 11.08666115 391.29388122 13.73973961 391.30297852 17.24804688 C391.3070874 18.22668701 391.31119629 19.20532715 391.31542969 20.21362305 C391.30616455 21.25365479 391.29689941 22.29368652 391.28735352 23.36523438 C391.28131104 24.43169189 391.27526855 25.49814941 391.26904297 26.59692383 C391.18711581 33.23600282 390.90752367 39.82255231 390.22485352 46.42773438 C390.15492188 47.15041504 390.08499023 47.8730957 390.01293945 48.61767578 C389.50938819 52.80958962 388.7135758 55.93573417 386.03735352 59.24023438 C383.73266602 60.42773438 383.73266602 60.42773438 381.16235352 61.24023438 C375.96290429 62.89388183 372.56600573 65.34676369 369.9621582 70.27539062 C368.86151512 72.74166575 367.84678824 75.23027208 366.84985352 77.74023438 C366.06922835 79.62438793 365.28526973 81.50716323 364.49829102 83.38867188 C364.09578125 84.35385742 363.69327148 85.31904297 363.27856445 86.31347656 C352.57221336 111.55890082 352.57221336 111.55890082 344.03735352 121.24023438 C343.5462207 121.80226563 343.05508789 122.36429687 342.54907227 122.94335938 C322.00500265 143.11583083 284.59954688 144.78767069 257.94659424 144.60748291 C237.41861277 144.32657772 217.93244712 138.72698046 202.03735352 125.24023438 C200.83079102 124.32564453 200.83079102 124.32564453 199.59985352 123.39257812 C185.34079523 111.41583862 179.48195139 91.37717518 173.53759766 74.50561523 C170.525338 64.96004249 170.525338 64.96004249 163.90844727 57.88867188 C159.63230723 56.92290419 155.47138035 56.87160222 151.09985352 56.86523438 C149.77824219 56.82849609 149.77824219 56.82849609 148.42993164 56.79101562 C142.81178278 56.76576552 139.39425059 57.34512823 135.03735352 61.24023438 C133.40332965 63.39562215 133.40332965 63.39562215 132.28735352 65.99023438 C131.55258789 67.55837891 131.55258789 67.55837891 130.80297852 69.15820312 C128.01662121 75.49996552 125.39555885 81.91862084 122.81567383 88.34667969 C114.88611744 107.85529914 103.55128101 124.65164254 83.90063477 133.68164062 C49.89285094 147.4242312 11.15714532 144.33464658 -22.36499023 130.83789062 C-42.60956074 121.84763076 -51.21383645 105.49810715 -58.99682617 85.76904297 C-59.98040451 83.19373851 -60.92088357 80.60680599 -61.84545898 78.00976562 C-62.14959717 77.15850098 -62.45373535 76.30723633 -62.76708984 75.43017578 C-63.33853296 73.81079732 -63.89750959 72.18694256 -64.44140625 70.55810547 C-66.58666679 64.41063294 -68.94510109 59.76643834 -75.00561523 56.70117188 C-76.04331055 56.3428125 -77.08100586 55.98445313 -78.15014648 55.61523438 C-83.58906193 53.72402087 -83.58906193 53.72402087 -85.28686523 51.52539062 C-87.96103294 42.4826848 -87.05288032 31.60971441 -87.08764648 22.24023438 C-87.09231934 21.36890869 -87.09699219 20.49758301 -87.10180664 19.59985352 C-87.08882677 14.39143241 -86.71436864 9.39490061 -85.96264648 4.24023438 C-58.49465715 -2.14622816 -28.10414511 0.03088046 0 0 Z " fill="#000000" transform="translate(162.962646484375,383.759765625)"/>
<path d="M0 0 C0.98742187 -0.00386719 1.97484375 -0.00773437 2.9921875 -0.01171875 C8.5819604 -0.00453395 14.11585825 0.20612722 19.69140625 0.609375 C25.06872422 0.99488755 30.4204625 1.23835049 35.80859375 1.3359375 C36.53244766 1.34914032 37.25630157 1.36234314 38.00209045 1.37594604 C39.52156079 1.40301043 41.04103627 1.42978751 42.56051636 1.45629883 C59.21397688 1.762475 75.81550444 2.56903784 92.4375 3.625 C93.48364471 3.69080261 94.52978943 3.75660522 95.6076355 3.82440186 C98.60198167 4.01434778 101.59597226 4.20897373 104.58984375 4.40625 C105.47474487 4.46354279 106.359646 4.52083557 107.2713623 4.5798645 C121.31833257 5.53416629 121.31833257 5.53416629 124.5 7.125 C126.62540003 7.11901296 128.75071575 7.06911988 130.875 7 C139.79404238 6.84203331 148.36971232 8.30556669 157.14160156 9.76513672 C159.53095857 10.12972391 161.91669163 10.40774148 164.3203125 10.66015625 C175.17800909 11.80300909 175.17800909 11.80300909 177.5 14.125 C179.26619587 14.3351919 181.03871338 14.49343437 182.8125 14.625 C186.15741574 14.87508716 189.27018752 15.20438837 192.5 16.125 C192.5 16.785 192.5 17.445 192.5 18.125 C193.07363281 18.05539063 193.64726562 17.98578125 194.23828125 17.9140625 C205.20117986 17.21536487 216.78630425 21.16041818 226.5 26.125 C227.62535156 26.56972656 227.62535156 26.56972656 228.7734375 27.0234375 C244.79972653 33.49824195 263.18033433 43.25897091 271.5 59.125 C271.5 59.785 271.5 60.445 271.5 61.125 C272.11488281 61.37636719 272.72976563 61.62773438 273.36328125 61.88671875 C275.85236826 63.3292061 276.48164546 64.3633697 277.6875 66.9375 C278.01105469 67.60394531 278.33460938 68.27039063 278.66796875 68.95703125 C279.5 71.125 279.5 71.125 279.92524147 73.31141567 C280.48547171 76.23404111 280.48547171 76.23404111 281.45334435 79.47924137 C284.36675459 89.86373623 285.08538571 99.41501788 285.04931641 110.15991211 C285.05803746 111.9049465 285.06841255 113.64997327 285.08029175 115.39498901 C285.10681898 120.08780734 285.10825687 124.78030102 285.10316515 129.47317958 C285.10100661 133.41835281 285.11084169 137.3634629 285.12037599 141.30862242 C285.14248292 150.6358919 285.14349089 159.96300027 285.13134766 169.2902832 C285.11929909 178.84360054 285.14382973 188.39632644 285.18648779 197.94954294 C285.22198448 206.20924888 285.23368064 214.46876892 285.22721231 222.72854811 C285.2236252 227.63597286 285.22846247 232.54297656 285.25664139 237.45033073 C285.3633928 257.72232294 285.05255123 276.28007713 279.11326218 295.84199715 C277.50793619 301.81817497 276.90889524 308.0102919 279.7890625 313.6484375 C280.82406892 315.18310219 281.9078148 316.68629541 283.04296875 318.1484375 C285.10692977 320.94834172 285.71920332 323.76156813 286.5 327.125 C287.24968066 329.29907391 288.02557442 331.46167212 288.81640625 333.62109375 C293.57687648 351.05801614 291.16205498 372.11037024 288.75 389.875 C288.59313721 391.05666748 288.43627441 392.23833496 288.2746582 393.45581055 C287.10969305 401.24515309 285.02042204 408.08415592 281.5 415.125 C280.84 415.125 280.18 415.125 279.5 415.125 C279.45101562 416.00414062 279.40203125 416.88328125 279.3515625 417.7890625 C278.27609819 422.00211995 276.10002843 423.83411863 272.875 426.5 C271.77606225 427.46059399 270.67970009 428.42414252 269.5859375 429.390625 C269.05452148 429.85662109 268.52310547 430.32261719 267.97558594 430.80273438 C262.73878296 435.49540892 259.20046002 440.12016931 256.59765625 446.6328125 C255.26559201 449.65721459 253.63171441 452.41334038 251.9375 455.25 C249.4274682 459.46211344 247.26573375 463.55486559 245.5 468.125 C244.84 468.125 244.18 468.125 243.5 468.125 C243.35884766 468.94097656 243.35884766 468.94097656 243.21484375 469.7734375 C242.29453533 472.80090017 240.78199617 475.0974716 239.0625 477.75 C238.44503906 478.71164062 237.82757812 479.67328125 237.19140625 480.6640625 C235.5 483.125 235.5 483.125 233.5 485.125 C232.51 485.125 231.52 485.125 230.5 485.125 C230.17 486.445 229.84 487.765 229.5 489.125 C228.84 489.125 228.18 489.125 227.5 489.125 C227.2525 489.70765625 227.005 490.2903125 226.75 490.890625 C225.31474554 493.45614236 223.72336987 494.96224798 221.5 496.875 C220.79875 497.48859375 220.0975 498.1021875 219.375 498.734375 C217.5 500.125 217.5 500.125 215.5 500.125 C215.35075073 501.05421265 215.35075073 501.05421265 215.19848633 502.00219727 C214.5 504.125 214.5 504.125 211.32421875 506.08984375 C209.95282868 506.76293101 208.5732985 507.41960054 207.1875 508.0625 C206.4641748 508.41022461 205.74084961 508.75794922 204.99560547 509.11621094 C198.9208219 512.00666461 192.75465611 514.64886365 186.5 517.125 C185.77707764 517.42913818 185.05415527 517.73327637 184.30932617 518.04663086 C152.91151436 531.0705187 114.79168471 534.00604486 81.56787109 527.48266602 C79.32001071 527.09386844 77.08231659 526.85038353 74.8125 526.625 C60.71390281 525.14787425 41.25076079 517.15752489 29.5 509.125 C29.17 508.135 28.84 507.145 28.5 506.125 C26.84109647 505.439244 25.17304463 504.77549511 23.5 504.125 C21.24609375 502.34765625 21.24609375 502.34765625 18.9375 500.1875 C17.64005859 499.00027344 17.64005859 499.00027344 16.31640625 497.7890625 C14.33212487 495.91211395 12.39033391 494.02061708 10.46484375 492.0859375 C9.95058838 491.58312256 9.43633301 491.08030762 8.90649414 490.56225586 C7.90855718 489.58499988 6.92619188 488.59150361 5.96264648 487.58032227 C3.16848942 484.87046957 1.10535329 483.7953119 -2.70703125 483.6875 C-7.50281421 484.24066961 -8.45731669 485.45817653 -11.5 489.125 C-15.55677108 493.43171433 -19.51046358 496.90259107 -24.5 500.125 C-25.67853329 501.13211027 -26.84470486 502.15381487 -28 503.1875 C-30.9948315 505.79821181 -33.87211283 507.45059054 -37.5 509.125 C-39.22951444 510.12439839 -40.95864072 511.12446867 -42.6875 512.125 C-47.44551641 514.7582036 -51.99114203 516.29948803 -57.28515625 517.484375 C-59.6811212 517.98425968 -59.6811212 517.98425968 -61.5 520.125 C-65.91160581 521.43332878 -70.43781803 522.29476025 -74.9375 523.25 C-76.17177734 523.52714844 -77.40605469 523.80429687 -78.67773438 524.08984375 C-85.36646039 525.52592136 -91.56349952 526.42514035 -98.41040039 526.12841797 C-100.56117796 525.96864064 -100.56117796 525.96864064 -102.5 527.125 C-105.32284465 527.22677807 -108.11475839 527.2667125 -110.9375 527.25 C-111.79005371 527.24516602 -112.64260742 527.24033203 -113.52099609 527.23535156 C-116.1809993 527.21088951 -118.8402963 527.17154853 -121.5 527.125 C-122.27649902 527.11243164 -123.05299805 527.09986328 -123.85302734 527.08691406 C-144.33301416 526.65183088 -164.35159847 523.47779154 -183.5 516.125 C-187.19837881 514.72198512 -190.88245343 513.32599031 -194.64453125 512.1015625 C-203.44548381 509.0916608 -217.05061637 503.426325 -221.6953125 494.94140625 C-221.96085937 494.34199219 -222.22640625 493.74257813 -222.5 493.125 C-223.81403276 492.42105388 -225.1520257 491.76154342 -226.5 491.125 C-231.87718265 487.18173272 -235.53730373 482.44709656 -239.5 477.125 C-240.36238281 476.04412109 -240.36238281 476.04412109 -241.2421875 474.94140625 C-246.2175069 468.64488959 -246.2175069 468.64488959 -246.5 464.125 C-247.49 463.795 -248.48 463.465 -249.5 463.125 C-250.47973633 461.45776367 -250.47973633 461.45776367 -251.33203125 459.29296875 C-251.65300781 458.49955078 -251.97398437 457.70613281 -252.3046875 456.88867188 C-252.63726562 456.03853516 -252.96984375 455.18839844 -253.3125 454.3125 C-256.07385365 447.47070742 -258.99101232 440.88650885 -262.46875 434.375 C-263.5 432.125 -263.5 432.125 -263.5 429.125 C-264.06976563 429.03089844 -264.63953125 428.93679688 -265.2265625 428.83984375 C-272.50957738 426.54982361 -277.62075473 419.15697063 -281.15625 412.7734375 C-292.6875918 390.04596733 -296.51990429 355.07073132 -289.5 330.125 C-288.84 330.125 -288.18 330.125 -287.5 330.125 C-287.60634766 328.36542969 -287.60634766 328.36542969 -287.71484375 326.5703125 C-287.71385917 322.09048939 -286.20483357 318.86007938 -284.0625 315 C-280.39152814 307.82744372 -278.85655806 301.29784143 -279.5 293.125 C-280.49 291.64 -280.49 291.64 -281.5 290.125 C-281.98657227 287.2277832 -281.98657227 287.2277832 -282.31640625 283.67578125 C-282.37779282 283.02667282 -282.43917938 282.37756439 -282.50242615 281.70878601 C-282.63161835 280.32128885 -282.7565866 278.93339296 -282.87768555 277.54516602 C-283.05554866 275.51677467 -283.24913647 273.48978091 -283.44335938 271.46289062 C-285.81331491 246.06043997 -285.68791376 220.58214694 -285.68530273 195.09521484 C-285.68522194 191.05675736 -285.69210341 187.01841446 -285.70581055 182.97998047 C-285.78038405 160.6961601 -285.59132957 138.50193938 -284.19096375 116.25595093 C-283.6964483 108.38165827 -283.39939107 100.58048062 -283.625 92.6875 C-283.84003785 78.91292394 -280.16198548 65.29551103 -270.5 55.125 C-269.84 55.125 -269.18 55.125 -268.5 55.125 C-268.17 53.805 -267.84 52.485 -267.5 51.125 C-266.84 51.125 -266.18 51.125 -265.5 51.125 C-265.273125 50.38894531 -265.04625 49.65289062 -264.8125 48.89453125 C-263.22418173 45.54299061 -261.42256686 44.0681439 -258.5 41.8125 C-257.613125 41.11511719 -256.72625 40.41773438 -255.8125 39.69921875 C-253.5 38.125 -253.5 38.125 -251.5 38.125 C-251.17 37.135 -250.84 36.145 -250.5 35.125 C-245.24285714 31.125 -245.24285714 31.125 -241.5 31.125 C-241.005 29.64 -241.005 29.64 -240.5 28.125 C-229.30164331 20.14138068 -212.99040081 17.24038355 -199.5 18.125 C-199.5 17.465 -199.5 16.805 -199.5 16.125 C-172.24394779 6.87615966 -143.00812643 5.76137268 -114.5 5 C-111.87587199 4.92216457 -109.25176729 4.84354007 -106.62768555 4.76416016 C-98.91886233 4.53499598 -91.20955488 4.32780474 -83.5 4.125 C-81.27685341 4.06518047 -79.05370878 4.00528824 -76.83056641 3.9453125 C-70.99139022 3.78927693 -65.1520564 3.64107448 -59.3125 3.5 C-58.03451538 3.46903229 -58.03451538 3.46903229 -56.73071289 3.43743896 C-54.30620316 3.38007132 -51.88165461 3.32576886 -49.45703125 3.2734375 C-48.70616241 3.25675018 -47.95529358 3.24006287 -47.18167114 3.22286987 C-43.36423368 3.14740872 -39.5538221 3.1239368 -35.73583984 3.17285156 C-34.96310226 3.18103912 -34.19036469 3.18922668 -33.39421082 3.19766235 C-31.93777284 3.2163075 -30.48140781 3.24364015 -29.02534485 3.28158569 C-25.01532909 3.33332544 -22.12553404 2.81374716 -18.5 1.125 C-12.35361021 -0.10117372 -6.24023939 -0.02369711 0 0 Z M-23.31268311 5.59303284 C-34.51918132 7.46341136 -46.14445481 7.30969722 -57.48092842 7.50942612 C-60.09285583 7.55628323 -62.70460851 7.60904419 -65.31639099 7.6633606 C-72.73363926 7.81726103 -80.15093697 7.96673645 -87.56860352 8.09912109 C-107.21504322 8.45376926 -126.79471298 9.01036754 -146.38671875 10.578125 C-147.16571596 10.63995846 -147.94471317 10.70179192 -148.74731636 10.76549911 C-165.73229558 12.1389245 -182.4236497 14.3265628 -198.76733398 19.2734375 C-203.78247867 20.76192745 -208.75759442 21.72467092 -213.92333984 22.54125977 C-230.64342182 25.19607082 -241.69165125 32.38050032 -254.5 43.125 C-255.43199219 43.89070313 -256.36398437 44.65640625 -257.32421875 45.4453125 C-263.44092581 50.6721464 -268.07542446 56.42140875 -272.5 63.125 C-272.92152344 63.72957031 -273.34304688 64.33414063 -273.77734375 64.95703125 C-279.39134934 73.66403614 -279.84770412 83.98673132 -279.5 94 C-279.28441521 105.87349584 -279.91094172 117.57139119 -280.78311157 129.409729 C-283.92287207 172.33613518 -282.19244813 215.16352789 -280.5 258.125 C-280.46034119 259.13181824 -280.42068237 260.13863647 -280.37982178 261.17596436 C-279.99544841 270.60306813 -279.56108126 279.92988118 -278 289.25 C-277.86980469 290.09691406 -277.73960937 290.94382812 -277.60546875 291.81640625 C-276.98803578 296.09854393 -276.98803578 296.09854393 -275.5 300.125 C-274.69409656 306.6873566 -276.08469488 309.46020545 -279.90625 314.71484375 C-287.89394368 326.79427267 -287.87728046 341.99588533 -287.8125 355.9375 C-287.81134186 356.70657684 -287.81018372 357.47565369 -287.80899048 358.26803589 C-287.74646804 379.29987542 -287.64821575 403.71012777 -271.99609375 419.6796875 C-268.71376832 422.66361971 -265.36349166 425.47643858 -261.81640625 428.140625 C-259.53667922 430.09357834 -258.64676762 431.20255629 -257.5625 433.9375 C-257.23894531 434.72511719 -256.91539062 435.51273437 -256.58203125 436.32421875 C-255.78467503 438.38813358 -254.99093986 440.45344823 -254.19921875 442.51953125 C-249.66938157 454.23629428 -244.59773695 465.87084513 -236.62890625 475.70703125 C-235.5 477.125 -235.5 477.125 -234.5 479.125 C-233.84 479.125 -233.18 479.125 -232.5 479.125 C-232.26796875 479.67800781 -232.0359375 480.23101563 -231.796875 480.80078125 C-221.1851994 499.81869385 -194.16439549 509.9951597 -174.54296875 515.7421875 C-169.10006295 517.26529631 -163.6265689 518.64326336 -158.125 519.9375 C-157.2585083 520.14463623 -156.3920166 520.35177246 -155.49926758 520.56518555 C-142.93188225 523.38154265 -130.1264023 523.33104922 -117.3125 523.3125 C-116.53931427 523.31189575 -115.76612854 523.3112915 -114.96951294 523.31066895 C-93.23956988 523.2645839 -71.37215982 521.69307695 -51.5 512.125 C-50.87883301 511.83608887 -50.25766602 511.54717773 -49.61767578 511.24951172 C-33.15270303 503.58018552 -11.96706487 491.05912974 -3.5 474.125 C0.07136421 475.31545474 0.61912071 476.33125497 2.8125 479.3125 C21.19050447 502.75451666 45.47718215 516.78617293 74.5 523.125 C75.20866211 523.28726074 75.91732422 523.44952148 76.64746094 523.61669922 C109.78308814 530.88433678 147.68691341 526.84227679 179.5 516.125 C180.69367188 515.72410156 181.88734375 515.32320312 183.1171875 514.91015625 C197.05765287 509.84864254 210.51945478 503.24063926 221.5 493.125 C221.5 492.465 221.5 491.805 221.5 491.125 C222.49 490.795 223.48 490.465 224.5 490.125 C227.71627356 486.63917208 230.57507682 482.85679854 233.5 479.125 C234.31210938 478.12726563 234.31210938 478.12726563 235.140625 477.109375 C243.09286111 467.05984584 256.5 447.27036281 256.5 434.125 C257.22058594 433.88394531 257.94117188 433.64289063 258.68359375 433.39453125 C261.89296237 431.94786717 263.97531406 430.19175137 266.5625 427.8125 C267.39910156 427.05324219 268.23570312 426.29398437 269.09765625 425.51171875 C271.45292265 423.17177116 273.48369257 420.75941437 275.5 418.125 C275.9434375 417.57199219 276.386875 417.01898438 276.84375 416.44921875 C287.9005384 400.79788651 286.68230086 376.47648992 286.90539551 358.20031738 C286.92646103 356.63353924 286.9552547 355.06684197 286.99255371 353.50036621 C287.31676153 338.60842023 284.51892634 325.44593762 275.5 313.125 C274.94441406 312.609375 274.38882813 312.09375 273.81640625 311.5625 C272.5 310.125 272.5 310.125 272.5625 306.875 C273.21775265 302.95060641 274.26942689 299.14951895 275.3125 295.3125 C276.04906268 292.58526444 276.7770482 289.855874 277.5 287.125 C277.69062012 286.4144043 277.88124023 285.70380859 278.07763672 284.97167969 C282.31414486 268.76712604 281.83677525 253.18794337 281.2265625 236.55859375 C281.17975342 235.26155518 281.13294434 233.9645166 281.0847168 232.62817383 C280.99013942 230.13669525 280.88567202 227.64556157 280.76879883 225.1550293 C280.5068938 218.85415717 280.53301205 212.66459614 280.96484375 206.375 C281.85490785 192.99116282 281.65043835 179.5606077 281.63037109 166.15380859 C281.62462403 162.25175862 281.6279984 158.34977671 281.63394356 154.44772911 C281.63756815 151.40898124 281.63640273 148.37024937 281.63381577 145.33150101 C281.63315437 143.89233008 281.633947 142.45315765 281.63629532 141.01398849 C281.70482507 132.20058073 281.70482507 132.20058073 280.92919922 123.43603516 C280.53947117 120.42949833 280.57539455 118.92015638 281.5 116.125 C283.46518465 97.28680894 280.41176523 74.33169777 268.5625 58.9375 C268.09972656 58.32519531 267.63695312 57.71289062 267.16015625 57.08203125 C255.03456131 42.78809463 239.06301931 33.26261428 221.5 27.125 C220.78070312 26.86332031 220.06140625 26.60164063 219.3203125 26.33203125 C207.32110466 22.12590323 194.78534917 19.91033236 182.3125 17.625 C181.4720816 17.47059448 180.63166321 17.31618896 179.76577759 17.15710449 C165.71990382 14.59032556 151.71406492 12.51917151 137.5 11.125 C135.74429688 10.9401001 135.74429688 10.9401001 133.953125 10.75146484 C111.52046245 8.39242836 89.08264136 7.25747483 66.54931641 6.36767578 C61.27937412 6.15868881 56.01026226 5.93311755 50.74119568 5.70320129 C46.31897854 5.51077208 41.896561 5.3232575 37.47409058 5.13674927 C35.37061777 5.04753082 33.26720028 4.95699577 31.16384888 4.86495972 C19.92739834 4.37677487 8.70492017 4.04151035 -2.54296875 4.01171875 C-3.5368158 4.00715668 -4.53066284 4.0025946 -5.55462646 3.99789429 C-11.60483469 4.00809908 -17.35787005 4.44430065 -23.31268311 5.59303284 Z " fill="#B1B1B1" transform="translate(315.5,49.875)"/>
<path d="M0 0 C3.77041321 1.39222879 7.60498437 2.44961226 11.47265625 3.53515625 C17.20547373 5.16848015 22.48953491 7.03589729 27.80859375 9.76953125 C30.57756249 10.93181443 33.03958925 11.62924524 35.94921875 12.30078125 C46.98618253 15.05729248 46.98618253 15.05729248 50.97265625 18.09765625 C54.37422451 23.82437967 54.68627386 30.58245679 54.97265625 37.09765625 C50.17523882 36.51260534 46.37709272 35.04940761 41.97265625 33.09765625 C27.06773026 27.53320161 11.50749336 24.33790359 -4.02734375 21.09765625 C-5.31946777 20.82356934 -5.31946777 20.82356934 -6.63769531 20.54394531 C-12.42054037 19.31959553 -18.21817837 18.18980508 -24.02734375 17.09765625 C-24.96981964 16.91916138 -24.96981964 16.91916138 -25.93133545 16.73706055 C-30.36788285 15.89754035 -34.80703164 15.07370444 -39.24923706 14.26464844 C-40.74557955 13.99075296 -42.24131435 13.71351243 -43.73635864 13.43261719 C-56.33954103 11.07259714 -67.73217336 9.52776991 -80.02734375 14.09765625 C-80.54890078 9.92520002 -79.61899558 6.53666545 -77.6640625 2.88574219 C-74.19078099 -0.90875569 -68.89263123 -1.06202727 -64.02734375 -1.77734375 C-62.95355469 -1.96296875 -61.87976563 -2.14859375 -60.7734375 -2.33984375 C-58.6079929 -2.70987159 -56.43956035 -3.06281659 -54.26855469 -3.39868164 C-51.06024536 -3.89723106 -47.86574257 -4.45394167 -44.66796875 -5.015625 C-29.46212189 -7.54161269 -14.29071476 -5.66886573 0 0 Z " fill="#FA9F02" transform="translate(232.02734375,349.90234375)"/>
<path d="M0 0 C3.27415906 0.72886197 3.27415906 0.72886197 6.99365234 1.12988281 C10.18701172 1.66430664 10.18701172 1.66430664 11.71044922 3.62524414 C11.99146484 4.42188477 12.27248047 5.21852539 12.56201172 6.03930664 C12.85849609 6.83079102 13.15498047 7.62227539 13.46044922 8.43774414 C13.70021484 9.17250977 13.93998047 9.90727539 14.18701172 10.66430664 C14.51701172 11.65430664 14.84701172 12.64430664 15.18701172 13.66430664 C14.07712891 13.50704102 12.96724609 13.34977539 11.82373047 13.18774414 C-7.44287179 10.81582071 -25.95201968 13.81934238 -44.81298828 17.66430664 C-45.55554871 17.81422058 -46.29810913 17.96413452 -47.06317139 18.11859131 C-84.54395954 25.4349235 -84.54395954 25.4349235 -119.81298828 39.66430664 C-119.72334928 38.03844055 -119.61522331 36.41359466 -119.50048828 34.78930664 C-119.44248047 33.88438477 -119.38447266 32.97946289 -119.32470703 32.04711914 C-119.15583984 30.93079102 -118.98697266 29.81446289 -118.81298828 28.66430664 C-118.72436523 27.86468506 -118.63574219 27.06506348 -118.54443359 26.24121094 C-117.99975647 23.30110517 -117.37003206 21.22809872 -115.81298828 18.66430664 C-111.87840182 16.04301571 -107.66615937 14.67447007 -103.18798828 13.22680664 C-101.46128906 12.61675781 -101.46128906 12.61675781 -99.69970703 11.99438477 C-96.41636892 10.84315732 -93.12017494 9.744813 -89.81298828 8.66430664 C-88.27753941 8.15346661 -86.74234792 7.64185168 -85.20751953 7.12915039 C-84.50369141 6.89574951 -83.79986328 6.66234863 -83.07470703 6.421875 C-80.43672457 5.53827617 -77.80672408 4.63256392 -75.17626953 3.72680664 C-47.87564861 -5.62496048 -28.11001641 -6.46560007 0 0 Z " fill="#F99F02" transform="translate(460.81298828125,349.335693359375)"/>
<path d="M0 0 C0.66 0 1.32 0 2 0 C1.96970703 0.72251953 1.93941406 1.44503906 1.90820312 2.18945312 C1.76708941 5.62611472 1.63357942 9.06303759 1.5 12.5 C1.45230469 13.634375 1.40460938 14.76875 1.35546875 15.9375 C0.46054984 39.46108277 1.10984165 63.03042225 1.46356201 86.56085205 C1.52517311 90.68508053 1.58475332 94.80933837 1.64453125 98.93359375 C1.76109231 106.95575833 1.87981132 114.97788895 2 123 C-0.21785034 119.67322449 -0.26107084 118.57613551 -0.30297852 114.69335938 C-0.31962051 113.60792847 -0.33626251 112.52249756 -0.35340881 111.4041748 C-0.36182297 110.22923462 -0.37023712 109.05429443 -0.37890625 107.84375 C-0.39590073 106.63110474 -0.4128952 105.41845947 -0.43040466 104.16906738 C-0.48362255 100.27943176 -0.5238134 96.38980514 -0.5625 92.5 C-0.60662917 88.63881839 -0.65361202 84.77771385 -0.70530701 80.91662598 C-0.7368886 78.51360852 -0.76388952 76.11052494 -0.78553772 73.70739746 C-0.86024552 67.55653864 -1.16265298 61.50446777 -1.77714539 55.38412476 C-2.05137533 52.45038066 -2.12936676 49.54351433 -2.1328125 46.59765625 C-2.13410156 45.52322266 -2.13539062 44.44878906 -2.13671875 43.34179688 C-2.13285156 42.25962891 -2.12898438 41.17746094 -2.125 40.0625 C-2.12886719 38.95326172 -2.13273437 37.84402344 -2.13671875 36.70117188 C-2.13542969 35.63576172 -2.13414063 34.57035156 -2.1328125 33.47265625 C-2.13168457 32.51625244 -2.13055664 31.55984863 -2.12939453 30.57446289 C-2.01037378 28.20639916 -1.58097004 26.28366984 -1 24 C-0.85492152 22.12243262 -0.75366301 20.24123507 -0.68359375 18.359375 C-0.62075195 16.75449219 -0.62075195 16.75449219 -0.55664062 15.1171875 C-0.51732422 14.00601563 -0.47800781 12.89484375 -0.4375 11.75 C-0.39431641 10.62335938 -0.35113281 9.49671875 -0.30664062 8.3359375 C-0.20067985 5.55741046 -0.09860858 2.77879609 0 0 Z " fill="#FEF899" transform="translate(81,184)"/>
<path d="M0 0 C0.33 0.99 0.66 1.98 1 3 C0.01 3.33 -0.98 3.66 -2 4 C-3.70855022 7.00007271 -3.70855022 7.00007271 -5 10 C-6.65 10 -8.3 10 -10 10 C-10.99450328 13.32909289 -11.14753545 16.38712746 -11.18945312 19.85424805 C-11.20617065 21.0319426 -11.22288818 22.20963715 -11.2401123 23.42301941 C-11.25368774 24.68979019 -11.26726318 25.95656097 -11.28125 27.26171875 C-11.30936991 29.24977937 -11.33749512 31.23783994 -11.36594391 33.22589588 C-11.42447283 37.42197422 -11.47464249 41.61816071 -11.52606201 45.81433105 C-11.56877688 49.27672436 -11.61333914 52.73906849 -11.66296387 56.20137024 C-11.69978404 58.79879351 -11.73218382 61.39628369 -11.7598877 63.99382019 C-11.77660522 65.16205826 -11.79332275 66.33029633 -11.81054688 67.53393555 C-11.82307495 68.56777878 -11.83560303 69.60162201 -11.84851074 70.66679382 C-12 73 -12 73 -13 74 C-13.23141862 76.66235998 -13.40356709 79.30482908 -13.53515625 81.97265625 C-13.57813339 82.77029892 -13.62111053 83.56794159 -13.66539001 84.38975525 C-13.80216326 86.94712559 -13.93239783 89.50478242 -14.0625 92.0625 C-14.15386766 93.79234043 -14.24565894 95.52215855 -14.33789062 97.25195312 C-14.56351718 101.50105831 -14.78327864 105.75043168 -15 110 C-15.33 110 -15.66 110 -16 110 C-16.09824761 98.32516044 -16.15103368 86.66346451 -15.5625 75 C-15.52326416 74.20754883 -15.48402832 73.41509766 -15.44360352 72.59863281 C-15.25212658 69.15719322 -14.97259879 65.80810067 -14.48461914 62.390625 C-13.8490957 57.4031829 -13.90165929 52.45783153 -13.9296875 47.4375 C-13.92110763 45.40363726 -13.91063336 43.36978178 -13.8984375 41.3359375 C-13.88173015 38.16252431 -13.87507372 34.99075926 -13.90039062 31.81738281 C-13.92141613 28.73141189 -13.89808473 25.64833351 -13.8671875 22.5625 C-13.88457977 21.62269287 -13.90197205 20.68288574 -13.91989136 19.71459961 C-13.80468753 13.37846031 -12.25808822 10.16345441 -7.8364563 5.62280273 C-5.3546486 3.42972887 -2.85791002 1.67292294 0 0 Z " fill="#E5A20B" transform="translate(97,126)"/>
<path d="M0 0 C0 0.33 0 0.66 0 1 C-1.07483643 1.02505615 -2.14967285 1.0501123 -3.25708008 1.07592773 C-7.24353022 1.17007495 -11.22980909 1.27027785 -15.21606445 1.37231445 C-16.94160965 1.41563562 -18.66719693 1.45731273 -20.39282227 1.49731445 C-22.87268764 1.55508526 -25.35234172 1.61876003 -27.83203125 1.68359375 C-28.60400345 1.70030624 -29.37597565 1.71701874 -30.17134094 1.73423767 C-33.35182933 1.82227895 -35.96235584 1.98745195 -39 3 C-38.01 3.66 -37.02 4.32 -36 5 C-46.56 5 -57.12 5 -68 5 C-68 4.34 -68 3.68 -68 3 C-70.64 2.67 -73.28 2.34 -76 2 C-76 1.67 -76 1.34 -76 1 C-50.65935398 0.1287415 -25.35464532 -0.12976787 0 0 Z " fill="#B7B7B7" transform="translate(272,54)"/>
<path d="M0 0 C0.33 0 0.66 0 1 0 C1.39164056 10.77011536 -0.0864234 21.53935027 -2.16357422 32.09204102 C-4.36895359 43.33083786 -4.7257249 54.56985033 -5 66 C-4.34 66 -3.68 66 -3 66 C-3 68.64 -3 71.28 -3 74 C-7.99810638 69.00189362 -7.2563536 59.70424598 -7.28112793 53.07495117 C-7.13155783 42.61428409 -5.17098215 32.30145278 -3.5 22 C-3.16164034 19.85694738 -2.82439297 17.71371883 -2.48828125 15.5703125 C-1.67164379 10.37811393 -0.84138878 5.18824207 0 0 Z " fill="#FEF278" transform="translate(124,226)"/>
<path d="M0 0 C0 0.33 0 0.66 0 1 C-5.34838564 1.2913427 -10.69708375 1.57578181 -16.04614258 1.85449219 C-17.85645867 1.94971312 -19.6666855 2.04665028 -21.47680664 2.14550781 C-33.99797842 2.82778462 -46.46042216 3.12922774 -59 3 C-58.67 2.34 -58.34 1.68 -58 1 C-55.4035034 0.44707233 -52.94612898 0.08459551 -50.3125 -0.1875 C-49.47557617 -0.27499512 -48.63865234 -0.36249023 -47.77636719 -0.45263672 C-31.94085169 -1.78635478 -15.85518707 -0.61770285 0 0 Z " fill="#ACACAC" transform="translate(230,57)"/>
<path d="M0 0 C7.80575195 -0.02312792 15.61149595 -0.04091738 23.41727352 -0.05181217 C27.0414596 -0.05704002 30.6656223 -0.06413587 34.28979492 -0.07543945 C37.78459975 -0.08627184 41.27938204 -0.09227758 44.77420235 -0.09487724 C46.76239389 -0.09763551 48.75057631 -0.10544688 50.73875427 -0.11329651 C51.93992386 -0.11337204 53.14109344 -0.11344757 54.37866211 -0.11352539 C55.97417152 -0.11685631 55.97417152 -0.11685631 57.60191345 -0.12025452 C60 0 60 0 61 1 C62.84891946 1.23363881 64.70488031 1.41303635 66.5625 1.5625 C67.57441406 1.64628906 68.58632813 1.73007813 69.62890625 1.81640625 C70.80259766 1.90728516 70.80259766 1.90728516 72 2 C72 2.33 72 2.66 72 3 C56.22564027 3.16229693 40.5095163 2.65064226 24.75 2 C22.33595204 1.90328229 19.92188957 1.80692596 17.5078125 1.7109375 C11.67170173 1.47811094 5.83578387 1.24087445 0 1 C0 0.67 0 0.34 0 0 Z " fill="#FFFA92" transform="translate(352,103)"/>
<path d="M0 0 C0.99 0.495 0.99 0.495 2 1 C2 2.32 2 3.64 2 5 C2.66 5 3.32 5 4 5 C4.144375 6.134375 4.28875 7.26875 4.4375 8.4375 C4.61171478 11.80777201 4.61171478 11.80777201 6 13 C6.08669432 14.4887186 6.10703494 15.981445 6.09765625 17.47265625 C6.09443359 18.37177734 6.09121094 19.27089844 6.08789062 20.19726562 C6.07951172 21.14279297 6.07113281 22.08832031 6.0625 23.0625 C6.05798828 24.01189453 6.05347656 24.96128906 6.04882812 25.93945312 C6.0370011 28.29303065 6.02052025 30.64648477 6 33 C5.34 33 4.68 33 4 33 C4 41.58 4 50.16 4 59 C3.34 59 2.68 59 2 59 C1.82710041 41.3642418 1.82710041 41.3642418 2.5 36 C3.75905641 25.31653603 4.0842383 14.25271491 0.65625 3.96875 C0 2 0 2 0 0 Z " fill="#FFFDBD" transform="translate(123,307)"/>
<path d="M0 0 C1.921539 0.06028885 1.921539 0.06028885 3.88189697 0.12179565 C5.27511469 0.17618455 6.66832333 0.2308063 8.06152344 0.28564453 C9.49067107 0.33427042 10.91985098 0.38195637 12.34906006 0.42874146 C16.10425671 0.5541913 19.85887958 0.69238789 23.61352539 0.83325195 C27.44748891 0.97482991 31.28185808 1.10433701 35.11621094 1.23486328 C42.63488888 1.49258838 50.15300156 1.76378218 57.67089844 2.04345703 C57.67089844 2.37345703 57.67089844 2.70345703 57.67089844 3.04345703 C56.60548828 3.13433594 56.60548828 3.13433594 55.51855469 3.22705078 C54.59945312 3.31083984 53.68035156 3.39462891 52.73339844 3.48095703 C51.816875 3.56216797 50.90035156 3.64337891 49.95605469 3.72705078 C47.70930112 3.80390679 47.70930112 3.80390679 46.67089844 5.04345703 C44.6713148 5.08426486 42.6704459 5.08600059 40.67089844 5.04345703 C40.67089844 4.71345703 40.67089844 4.38345703 40.67089844 4.04345703 C15.42589844 3.05345703 15.42589844 3.05345703 -10.32910156 2.04345703 C-6.12437532 -0.05890609 -4.55898655 -0.16153889 0 0 Z " fill="#ECA911" transform="translate(326.3291015625,101.95654296875)"/>
<path d="M0 0 C0.66 0 1.32 0 2 0 C3.13012105 10.25900187 3.11660861 20.44690459 3.0625 30.75 C3.05747197 32.42968616 3.05291138 34.10937378 3.04882812 35.7890625 C3.03793264 39.85941196 3.02074084 43.92968929 3 48 C2.67 48 2.34 48 2 48 C0.38363433 31.95671093 -0.28079872 16.12216668 0 0 Z " fill="#EEAC12" transform="translate(82,268)"/>
<path d="M0 0 C0.33 0 0.66 0 1 0 C0.99777939 0.79513504 0.99555878 1.59027008 0.99327087 2.40950012 C0.97324248 9.89908277 0.95801283 17.38865246 0.94818783 24.87825489 C0.94296692 28.72882542 0.93588362 32.57937384 0.92456055 36.42993164 C0.91370356 40.14519659 0.90771718 43.86044025 0.90512276 47.57571983 C0.90327359 48.99390689 0.89966269 50.41209276 0.89426994 51.83027077 C0.88702236 53.81497692 0.88659162 55.79970444 0.88647461 57.78442383 C0.884254 58.91471512 0.88203339 60.04500641 0.87974548 61.20954895 C0.87548582 64.08493898 0.87548582 64.08493898 2 67 C2.068991 69.06145107 2.08467727 71.12501401 2.0625 73.1875 C2.05347656 74.27417969 2.04445313 75.36085938 2.03515625 76.48046875 C2.02355469 77.31191406 2.01195312 78.14335937 2 79 C1.01 79.495 1.01 79.495 0 80 C-0.87246238 71.31020005 -1.14723389 62.71455316 -1.1328125 53.984375 C-1.13376923 52.68856506 -1.13472595 51.39275513 -1.13571167 50.05767822 C-1.13717224 47.33824446 -1.13508618 44.61884391 -1.13037109 41.89941406 C-1.12465187 38.43437965 -1.12797709 34.96942236 -1.13394356 31.50439072 C-1.13844517 28.16437945 -1.13528581 24.82438845 -1.1328125 21.484375 C-1.13483673 20.25088318 -1.13686096 19.01739136 -1.13894653 17.746521 C-1.12263868 11.73533279 -0.9254587 5.94241903 0 0 Z " fill="#FEF999" transform="translate(549,232)"/>
<path d="M0 0 C2.61151678 2.61151678 3.3397009 5.50155329 4.4375 8.9375 C4.65559326 9.61772217 4.87368652 10.29794434 5.09838867 10.9987793 C5.53517745 12.37092028 5.96889541 13.74404288 6.39941406 15.11816406 C6.90105915 16.68998533 7.44192447 18.24921956 7.9921875 19.8046875 C9.9195199 25.696818 10.27516869 31.28517723 10.3125 37.4375 C10.31805908 38.21971924 10.32361816 39.00193848 10.3293457 39.80786133 C10.27895281 43.77856316 9.93043414 46.54981128 8 50 C7.98598145 49.06486572 7.98598145 49.06486572 7.97167969 48.11083984 C7.69997442 33.65452125 6.50772647 21.48528544 1 8 C0.34 8 -0.32 8 -1 8 C-0.67 5.36 -0.34 2.72 0 0 Z " fill="#E9A511" transform="translate(117,292)"/>
<path d="M0 0 C1.6850061 0.061875 1.6850061 0.061875 3.40405273 0.125 C5.20918335 0.21007812 5.20918335 0.21007812 7.05078125 0.296875 C8.28707275 0.3484375 9.52336426 0.4 10.79711914 0.453125 C42.14667269 1.85931077 42.14667269 1.85931077 52.36328125 4.046875 C52.36328125 4.376875 52.36328125 4.706875 52.36328125 5.046875 C50.38473867 5.24084976 48.40541645 5.42688821 46.42578125 5.609375 C44.77255859 5.76599609 44.77255859 5.76599609 43.0859375 5.92578125 C41.73822266 5.98572266 41.73822266 5.98572266 40.36328125 6.046875 C39.86828125 5.551875 39.86828125 5.551875 39.36328125 5.046875 C36.52621037 4.8358532 33.70430479 4.67079687 30.86328125 4.546875 C22.49841639 4.18201014 22.49841639 4.18201014 21.36328125 3.046875 C19.07339344 2.88799408 16.77884684 2.79549427 14.484375 2.73046875 C13.79771255 2.70968765 13.11105011 2.68890656 12.40357971 2.66749573 C10.2027519 2.60193357 8.0018015 2.54308485 5.80078125 2.484375 C4.31183611 2.44119608 2.82290352 2.397582 1.33398438 2.35351562 C-2.32278428 2.2462457 -5.97969193 2.14499728 -9.63671875 2.046875 C-6.28840748 0.0207225 -3.87913195 -0.15485054 0 0 Z " fill="#EAAA11" transform="translate(401.63671875,104.953125)"/>
<path d="M0 0 C6.85130406 -0.18203948 13.4553332 0.53555281 20.25 1.375 C22.55453837 1.65098772 24.8592284 1.92571177 27.1640625 2.19921875 C28.87964355 2.40297119 28.87964355 2.40297119 30.62988281 2.61083984 C38.40921099 3.50914824 46.20500743 4.2521734 54 5 C54 5.33 54 5.66 54 6 C46.74 6 39.48 6 32 6 C32 5.34 32 4.68 32 4 C31.39937744 4.00523682 30.79875488 4.01047363 30.17993164 4.01586914 C27.47413162 4.03658014 24.76834823 4.04964125 22.0625 4.0625 C21.11697266 4.07087891 20.17144531 4.07925781 19.19726562 4.08789062 C17.84858398 4.09272461 17.84858398 4.09272461 16.47265625 4.09765625 C15.22367554 4.10551147 15.22367554 4.10551147 13.94946289 4.11352539 C12 4 12 4 11 3 C9.15400312 2.60545777 7.29774178 2.25823134 5.4375 1.9375 C3.91962891 1.67259766 3.91962891 1.67259766 2.37109375 1.40234375 C1.58863281 1.26957031 0.80617187 1.13679687 0 1 C0 0.67 0 0.34 0 0 Z " fill="#FFF99C" transform="translate(192,199)"/>
<path d="M0 0 C7.59 0.33 15.18 0.66 23 1 C23 1.66 23 2.32 23 3 C20.36 3 17.72 3 15 3 C15 3.66 15 4.32 15 5 C6.09 4.67 -2.82 4.34 -12 4 C-12 3.67 -12 3.34 -12 3 C-6.06 2.505 -6.06 2.505 0 2 C0 1.34 0 0.68 0 0 Z " fill="#B7B7B7" transform="translate(320,50)"/>
<path d="M0 0 C9.59567793 -0.23889655 18.53149174 0.21168141 28 2 C28 2.33 28 2.66 28 3 C24.7 3.33 21.4 3.66 18 4 C18 4.33 18 4.66 18 5 C9.98529415 4.45721733 1.98696098 3.86494739 -6 3 C-6 2.67 -6 2.34 -6 2 C-4.02 1.67 -2.04 1.34 0 1 C0 0.67 0 0.34 0 0 Z " fill="#B5B5B5" transform="translate(440,57)"/>
<path d="M0 0 C5.2869455 0.71676251 10.79740745 1.48281411 15 5 C18.03139352 10.77561651 18.44096852 17.59940358 19 24 C15.04228909 23.45509777 11.73983108 22.6353752 8.125 20.9375 C7.34382813 20.57527344 6.56265625 20.21304687 5.7578125 19.83984375 C5.17773438 19.56269531 4.59765625 19.28554688 4 19 C4 18.67 4 18.34 4 18 C7.49234244 17.90021879 10.59437148 18.22157062 14 19 C14.07654536 14.48382401 14.10228696 10.40914783 13 6 C12.34 5.896875 11.68 5.79375 11 5.6875 C7.16158991 4.80786436 3.66903309 3.43030104 0 2 C0 1.34 0 0.68 0 0 Z " fill="#E8A50C" transform="translate(268,363)"/>
<path d="M0 0 C0.66 0 1.32 0 2 0 C2 1.65 2 3.3 2 5 C2.66 5 3.32 5 4 5 C4 6.98 4 8.96 4 11 C2.9941687 10.76228882 2.9941687 10.76228882 1.96801758 10.51977539 C-1.54144888 9.90517852 -4.92627151 9.78293267 -8.48828125 9.68359375 C-9.19147995 9.66281265 -9.89467865 9.64203156 -10.6191864 9.62062073 C-12.85019817 9.55559885 -15.08132069 9.49646224 -17.3125 9.4375 C-18.83139134 9.39426964 -20.35027177 9.35065395 -21.86914062 9.30664062 C-25.5793112 9.19996666 -29.28960421 9.09856779 -33 9 C-33 8.67 -33 8.34 -33 8 C-29.51613783 7.21074259 -26.29609646 6.87169693 -22.7265625 6.8671875 C-21.7365625 6.86589844 -20.7465625 6.86460937 -19.7265625 6.86328125 C-18.70304687 6.86714844 -17.67953125 6.87101562 -16.625 6.875 C-15.10132813 6.86919922 -15.10132813 6.86919922 -13.546875 6.86328125 C-8.25651393 6.87015185 -3.21135089 7.07516872 2 8 C1.67 7.236875 1.34 6.47375 1 5.6875 C0 3 0 3 0 0 Z " fill="#FEFBA4" transform="translate(473,354)"/>
<path d="M0 0 C5.31242986 -0.21155694 10.30129329 -0.03798941 15.53125 0.96875 C22.1055745 2.1118021 28.58867149 2.43624925 35.25 2.625 C36.38824219 2.66367187 37.52648437 2.70234375 38.69921875 2.7421875 C41.46599779 2.83518848 44.23279117 2.92102861 47 3 C47 3.33 47 3.66 47 4 C37.8557061 6.04113703 28.55782212 4.97248786 19.3125 4.125 C18.43400391 4.04660889 17.55550781 3.96821777 16.65039062 3.88745117 C10.96719068 3.33076658 5.55185858 2.33874604 0 1 C0 0.67 0 0.34 0 0 Z " fill="#A9A9A9" transform="translate(394,574)"/>
<path d="M0 0 C0.66 0 1.32 0 2 0 C2.28783023 3.7897647 2.52316865 7.58113453 2.75 11.375 C2.83121094 12.43589844 2.91242187 13.49679687 2.99609375 14.58984375 C3.40509603 21.99732949 2.35855138 27.37381935 -1 34 C-1.33 34 -1.66 34 -2 34 C-2.12555149 26.46691037 -2.12555149 26.46691037 -1.51367188 24.19140625 C-0.92838914 21.69449663 -0.78787115 19.35911978 -0.68359375 16.796875 C-0.64169922 15.8171875 -0.59980469 14.8375 -0.55664062 13.828125 C-0.51732422 12.81234375 -0.47800781 11.7965625 -0.4375 10.75 C-0.39431641 9.71875 -0.35113281 8.6875 -0.30664062 7.625 C-0.20074318 5.0834613 -0.09866557 2.54182804 0 0 Z " fill="#ACACAC" transform="translate(597,296)"/>
<path d="M0 0 C0 0.33 0 0.66 0 1 C-1.27875 0.855625 -2.5575 0.71125 -3.875 0.5625 C-17.03391322 -0.72175037 -29.82110965 -1.26346294 -43 0 C-32.05532981 -9.32323757 -12.57266709 -2.52393103 0 0 Z " fill="#FEF69A" transform="translate(196,364)"/>
<path d="M0 0 C0.33 0 0.66 0 1 0 C1 14.85 1 29.7 1 45 C0.67 45 0.34 45 0 45 C-0.66 33.78 -1.32 22.56 -2 11 C-2.33 11 -2.66 11 -3 11 C-3 8.03 -3 5.06 -3 2 C-2.34 3.32 -1.68 4.64 -1 6 C-0.67 4.02 -0.34 2.04 0 0 Z " fill="#B7B7B7" transform="translate(599,244)"/>
<path d="M0 0 C0.66 0 1.32 0 2 0 C2.33 0.66 2.66 1.32 3 2 C3.99 1.67 4.98 1.34 6 1 C15.83896572 0.27602303 25.24155948 1.11737727 34.9375 2.875 C35.90276611 3.04862061 36.86803223 3.22224121 37.86254883 3.40112305 C44.73257021 4.73257021 44.73257021 4.73257021 47 7 C42.1300186 6.43257004 37.3279666 5.72614811 32.50585938 4.84423828 C20.69974277 2.71555968 10.47469845 1.73506783 -1 6 C-1.042721 4.33388095 -1.04063832 2.66617115 -1 1 C-0.67 0.67 -0.34 0.34 0 0 Z " fill="#E6A612" transform="translate(153,358)"/>
<path d="M0 0 C0.33 0.99 0.66 1.98 1 3 C0.01 3.33 -0.98 3.66 -2 4 C-3.70855022 7.00007271 -3.70855022 7.00007271 -5 10 C-6.65 10 -8.3 10 -10 10 C-11.08895891 13.58077593 -11.20189808 17.00468023 -11.31640625 20.734375 C-11.37924805 22.67763672 -11.37924805 22.67763672 -11.44335938 24.66015625 C-11.48316671 26.02343476 -11.52287906 27.38671606 -11.5625 28.75 C-11.60572274 30.12891875 -11.64933821 31.50782526 -11.69335938 32.88671875 C-11.79943958 36.2577119 -11.9014985 39.62877826 -12 43 C-12.33 43 -12.66 43 -13 43 C-13.17439217 38.73179948 -13.30067865 34.46553888 -13.38452148 30.19482422 C-13.41950365 28.74556316 -13.46710991 27.29654519 -13.52807617 25.84814453 C-14.08467014 12.27473535 -14.08467014 12.27473535 -9.6875 7.15625 C-6.71663461 4.36553283 -3.51394517 2.05694351 0 0 Z " fill="#F5B81B" transform="translate(97,126)"/>
<path d="M0 0 C0 0.33 0 0.66 0 1 C-12.51843561 3.79730495 -12.51843561 3.79730495 -18.36328125 4.69140625 C-25.95442918 5.86492112 -32.35248563 7.0029469 -39.01953125 11.109375 C-41.44612178 12.20062281 -42.54970658 11.90302948 -45 11 C-31.50145629 3.59190551 -15.42384144 -0.36028996 0 0 Z " fill="#FEF183" transform="translate(390,203)"/>
<path d="M0 0 C0.33 0 0.66 0 1 0 C1.87157852 10.69240075 2.11813543 21.27592816 2 32 C1.01 32 0.02 32 -1 32 C-1.02465504 27.60343827 -1.04283842 23.2069128 -1.05493164 18.81030273 C-1.05997121 17.31355082 -1.06680287 15.81680384 -1.07543945 14.32006836 C-1.08752159 12.17300193 -1.09323191 10.02600038 -1.09765625 7.87890625 C-1.10289307 6.5854126 -1.10812988 5.29191895 -1.11352539 3.95922852 C-1 1 -1 1 0 0 Z " fill="#A9A9A9" transform="translate(33,283)"/>
<path d="M0 0 C2 1 2 1 4 6 C13.24 6 22.48 6 32 6 C32 6.33 32 6.66 32 7 C30.60974609 7.09087891 30.60974609 7.09087891 29.19140625 7.18359375 C27.99386719 7.26738281 26.79632813 7.35117187 25.5625 7.4375 C24.36753906 7.51871094 23.17257813 7.59992188 21.94140625 7.68359375 C19.11429756 7.67656114 19.11429756 7.67656114 18 9 C15.50761431 9.12653198 13.05529559 9.18519825 10.5625 9.1875 C9.52125977 9.20586914 9.52125977 9.20586914 8.45898438 9.22460938 C6.63779099 9.22989842 4.8171308 9.12169207 3 9 C0.23776722 6.23776722 0.42143709 3.79293383 0 0 Z " fill="#FFFAB5" transform="translate(92,360)"/>
<path d="M0 0 C0.99 0.33 1.98 0.66 3 1 C2.5359375 1.7425 2.5359375 1.7425 2.0625 2.5 C0.23275786 6.80527561 0 11.33759815 0 16 C1.65 15.67 3.3 15.34 5 15 C2.19713709 18.11429212 -0.09330571 19.56171454 -4 21 C-3.59248958 13.60860415 -2.41492814 7.00177279 0 0 Z " fill="#E7A50E" transform="translate(345,368)"/>
<path d="M0 0 C2 1 2 1 3.125 4.0625 C4.19682285 8.09858291 4.1459001 11.84184728 4 16 C3.34 16 2.68 16 2 16 C2.020625 16.94875 2.04125 17.8975 2.0625 18.875 C2 22 2 22 1 24 C0.77377919 25.70363822 0.59111527 27.41328701 0.4375 29.125 C0.31181641 30.49011719 0.31181641 30.49011719 0.18359375 31.8828125 C0.12300781 32.58148438 0.06242188 33.28015625 0 34 C-0.33 34 -0.66 34 -1 34 C-1.34633464 22.45551186 -1.34633464 22.45551186 0.0625 18.125 C1.84420489 12.26904685 0.6219449 5.98411853 0 0 Z " fill="#FEF08F" transform="translate(547,144)"/>
<path d="M0 0 C7.6026968 0.69115425 15.61957579 2.74638386 22 7 C24.62531524 7.16713569 24.62531524 7.16713569 27 7 C27 7.99 27 8.98 27 10 C24.03 9.67 21.06 9.34 18 9 C17.67 8.01 17.34 7.02 17 6 C15.35 6 13.7 6 12 6 C12 5.34 12 4.68 12 4 C11.13375 3.87625 10.2675 3.7525 9.375 3.625 C6.10486147 3.01941879 3.12743101 2.11693965 0 1 C0 0.67 0 0.34 0 0 Z " fill="#FEF892" transform="translate(261,379)"/>
<path d="M0 0 C1.55958438 2.53432462 2.00651897 3.85006359 1.875 6.875 C2.03609145 10.90228617 3.59697896 12.84603489 6 16 C3 16 3 16 1.359375 14.75 C-2.87901819 10.14126178 -2.87901819 10.14126178 -3.234375 6.7890625 C-3 4.625 -3 4.625 -2 1 C-1.34 0.67 -0.68 0.34 0 0 Z " fill="#A9A9A9" transform="translate(590,351)"/>
<path d="M0 0 C1.27957311 2.55914622 0.71514586 3.28340567 0 6 C-0.75098026 13.70048366 -0.75098026 13.70048366 2 20.6875 C2.66 21.450625 3.32 22.21375 4 23 C3.67 23.66 3.34 24.32 3 25 C-0.61997652 21.62135525 -2.76966221 19.17474773 -3.30078125 14.16015625 C-3.30464844 13.13792969 -3.30851562 12.11570312 -3.3125 11.0625 C-3.32925781 10.04285156 -3.34601563 9.02320313 -3.36328125 7.97265625 C-2.95494192 4.63129895 -1.91007169 2.73659348 0 0 Z " fill="#FEFBB0" transform="translate(500,330)"/>
<path d="M0 0 C0.99 0 1.98 0 3 0 C3 0.66 3 1.32 3 2 C3.89203125 2.04898438 4.7840625 2.09796875 5.703125 2.1484375 C6.87359375 2.22320312 8.0440625 2.29796875 9.25 2.375 C10.41015625 2.44460937 11.5703125 2.51421875 12.765625 2.5859375 C15.76726687 2.97020566 17.39983939 3.59116773 20 5 C13.05033907 5.1346906 6.28143617 4.75715004 -0.625 4 C-1.53378906 3.90460938 -2.44257813 3.80921875 -3.37890625 3.7109375 C-5.58647043 3.47856232 -7.79342261 3.24153511 -10 3 C-10 2.67 -10 2.34 -10 2 C-6.7 2 -3.4 2 0 2 C0 1.34 0 0.68 0 0 Z " fill="#E6A610" transform="translate(236,200)"/>
<path d="M0 0 C2.81256281 -0.02684312 5.62487241 -0.04676188 8.4375 -0.0625 C9.23994141 -0.07087891 10.04238281 -0.07925781 10.86914062 -0.08789062 C12.91295221 -0.0965143 14.95683902 -0.0522815 17 0 C17.33 0.33 17.66 0.66 18 1 C19.84891946 1.23363881 21.70488031 1.41303635 23.5625 1.5625 C24.57441406 1.64628906 25.58632813 1.73007813 26.62890625 1.81640625 C27.80259766 1.90728516 27.80259766 1.90728516 29 2 C29 2.33 29 2.66 29 3 C22.4 3 15.8 3 9 3 C9 2.34 9 1.68 9 1 C6.03 1 3.06 1 0 1 C0 0.67 0 0.34 0 0 Z " fill="#FFF8BA" transform="translate(395,103)"/>
<path d="M0 0 C0 0.66 0 1.32 0 2 C-2.64 2 -5.28 2 -8 2 C-8 2.66 -8 3.32 -8 4 C-10.74755487 4.69888677 -13.49731197 5.3843988 -16.25 6.0625 C-17.02730469 6.26166016 -17.80460937 6.46082031 -18.60546875 6.66601562 C-19.35957031 6.84970703 -20.11367188 7.03339844 -20.890625 7.22265625 C-21.58188477 7.39547119 -22.27314453 7.56828613 -22.98535156 7.74633789 C-25.25070809 8.03156637 -26.8368312 7.68076195 -29 7 C-24.919064 5.82483331 -20.83488859 4.66134593 -16.75 3.5 C-15.59113281 3.16613281 -14.43226563 2.83226562 -13.23828125 2.48828125 C-12.12324219 2.17246094 -11.00820313 1.85664063 -9.859375 1.53125 C-8.83295898 1.23798828 -7.80654297 0.94472656 -6.74902344 0.64257812 C-4 0 -4 0 0 0 Z " fill="#FEF58D" transform="translate(388,373)"/>
<path d="M0 0 C0.99 0.495 0.99 0.495 2 1 C2 2.32 2 3.64 2 5 C2.66 5 3.32 5 4 5 C4.144375 6.134375 4.28875 7.26875 4.4375 8.4375 C4.61171478 11.80777201 4.61171478 11.80777201 6 13 C5.909084 15.70108504 5.76259234 18.36930311 5.5625 21.0625 C5.51029297 21.82111328 5.45808594 22.57972656 5.40429688 23.36132812 C5.27424165 25.24121722 5.13771962 27.12065685 5 29 C4.67 29 4.34 29 4 29 C3.96261719 27.97261719 3.92523438 26.94523437 3.88671875 25.88671875 C3.54811401 18.29793493 2.92517109 11.33714478 0.62109375 4.0390625 C0 2 0 2 0 0 Z " fill="#FFFA93" transform="translate(123,307)"/>
<path d="M0 0 C0.66 0 1.32 0 2 0 C1.50610812 8.78607656 0.63177319 17.35001785 -1 26 C-1.33 26 -1.66 26 -2 26 C-2.02685938 23.85423363 -2.04633088 21.70837355 -2.0625 19.5625 C-2.07410156 18.36753906 -2.08570312 17.17257813 -2.09765625 15.94140625 C-2 13 -2 13 -1 12 C-0.76572222 9.98405418 -0.58663876 7.961526 -0.4375 5.9375 C-0.35371094 4.83277344 -0.26992187 3.72804687 -0.18359375 2.58984375 C-0.12300781 1.73519531 -0.06242187 0.88054687 0 0 Z " fill="#E8A008" transform="translate(121,232)"/>
<path d="M0 0 C0.33 0 0.66 0 1 0 C1.33896268 2.83275953 1.67129694 5.66604661 2 8.5 C2.14308594 9.68722656 2.14308594 9.68722656 2.2890625 10.8984375 C2.87107882 15.97029404 3.09367085 20.89493859 3 26 C2.67 26 2.34 26 2 26 C-0.32492213 20.4897515 -0.23374511 15.48887115 -0.125 9.625 C-0.11597656 8.69816406 -0.10695313 7.77132813 -0.09765625 6.81640625 C-0.07422937 4.54399923 -0.04142748 2.2721382 0 0 Z " fill="#FEF38E" transform="translate(83,308)"/>
<path d="M0 0 C7.65606218 -0.19355213 14.66258031 -0.3479743 22 2 C22 2.33 22 2.66 22 3 C14.44862068 3.30071865 7.41143564 2.42625566 0 1 C0 0.67 0 0.34 0 0 Z " fill="#E8A60C" transform="translate(202,199)"/>
<path d="M0 0 C0 0.33 0 0.66 0 1 C-7.59 1 -15.18 1 -23 1 C-23 0.34 -23 -0.32 -23 -1 C-15.17927953 -2.5960654 -7.7763718 -1.22518358 0 0 Z " fill="#A9A9A9" transform="translate(358,54)"/>
<path d="M0 0 C2.4375 1.0625 2.4375 1.0625 5 3 C5.8125 6.6875 5.8125 6.6875 6 10 C4.125 9.75 4.125 9.75 2 9 C-0.11103658 6.04454879 -0.19785783 3.56144099 0 0 Z " fill="#AAAAAA" transform="translate(52,477)"/>
<path d="M0 0 C0.33 0 0.66 0 1 0 C1 8.91 1 17.82 1 27 C0.67 27 0.34 27 0 27 C0 22.05 0 17.1 0 12 C-0.66 12 -1.32 12 -2 12 C-1.34 8.04 -0.68 4.08 0 0 Z " fill="#B1B1B1" transform="translate(599,216)"/>
<path d="M0 0 C0.33 0 0.66 0 1 0 C1.02687279 1.81242052 1.04633715 3.62495233 1.0625 5.4375 C1.07410156 6.44683594 1.08570313 7.45617187 1.09765625 8.49609375 C1 11 1 11 0 12 C-0.23427778 14.01594582 -0.41336124 16.038474 -0.5625 18.0625 C-0.64628906 19.16722656 -0.73007812 20.27195312 -0.81640625 21.41015625 C-0.87699219 22.26480469 -0.93757813 23.11945313 -1 24 C-1.33 24 -1.66 24 -2 24 C-2.33 18.39 -2.66 12.78 -3 7 C-2.34 7 -1.68 7 -1 7 C-0.67 4.69 -0.34 2.38 0 0 Z " fill="#B6B6B6" transform="translate(35,308)"/>
<path d="M0 0 C0.66 0.33 1.32 0.66 2 1 C-0.41557788 2.46016275 -2.83240371 3.91818597 -5.25 5.375 C-5.93191406 5.7875 -6.61382812 6.2 -7.31640625 6.625 C-7.98027344 7.02460938 -8.64414063 7.42421875 -9.328125 7.8359375 C-10.23933105 8.38580322 -10.23933105 8.38580322 -11.16894531 8.94677734 C-13.07784057 10.04477389 -15.02162512 11.0337281 -17 12 C-17 11.34 -17 10.68 -17 10 C-16.34 10 -15.68 10 -15 10 C-15 9.01 -15 8.02 -15 7 C-13.02 6.67 -11.04 6.34 -9 6 C-9 5.34 -9 4.68 -9 4 C-7.54618103 3.30300448 -6.08677047 2.61766134 -4.625 1.9375 C-3.81289062 1.55464844 -3.00078125 1.17179688 -2.1640625 0.77734375 C-1.44992188 0.52082031 -0.73578125 0.26429688 0 0 Z " fill="#ECA60D" transform="translate(151,199)"/>
<path d="M0 0 C0 0.33 0 0.66 0 1 C-5.37578685 2.75623315 -10.30110255 3.39316874 -15.9375 3.625 C-16.71673828 3.66367188 -17.49597656 3.70234375 -18.29882812 3.7421875 C-20.19887379 3.83544127 -22.09940278 3.91875962 -24 4 C-17.13767246 -0.57488503 -8.01062788 -0.3127794 0 0 Z " fill="#EDAE16" transform="translate(162,110)"/>
<path d="M0 0 C0.66 0.66 1.32 1.32 2 2 C1.89834392 5.76127491 1.00920966 6.98989184 -1.5625 9.8125 C-2.366875 10.534375 -3.17125 11.25625 -4 12 C-4.125 9.625 -4.125 9.625 -4 7 C-3.34 6.34 -2.68 5.68 -2 5 C-1.29289322 3.35008418 -0.62056011 1.68437744 0 0 Z " fill="#A6A6A6" transform="translate(39,352)"/>
<path d="M0 0 C0.33 0 0.66 0 1 0 C1 5.94 1 11.88 1 18 C1.66 18 2.32 18 3 18 C3 20.64 3 23.28 3 26 C0.35840251 23.35840251 0.06857002 21.38319748 -0.11352539 17.70996094 C-0.10828857 16.89301758 -0.10305176 16.07607422 -0.09765625 15.234375 C-0.09443359 14.34492188 -0.09121094 13.45546875 -0.08789062 12.5390625 C-0.07532227 11.15847656 -0.07532227 11.15847656 -0.0625 9.75 C-0.05798828 8.81414062 -0.05347656 7.87828125 -0.04882812 6.9140625 C-0.03706918 4.60930959 -0.02063426 2.30468773 0 0 Z " fill="#FFF9A9" transform="translate(118,274)"/>
<path d="M0 0 C1.98 0 3.96 0 6 0 C2.72920334 2.80583047 -0.38404272 3.92608584 -4.5 5.125 C-6.18609375 5.62386719 -6.18609375 5.62386719 -7.90625 6.1328125 C-10.26454614 6.79385005 -12.61895835 7.42808313 -15 8 C-15 7.34 -15 6.68 -15 6 C-13.25307205 5.32532438 -11.50231475 4.66055844 -9.75 4 C-8.77546875 3.62875 -7.8009375 3.2575 -6.796875 2.875 C-4 2 -4 2 0 2 C0 1.34 0 0.68 0 0 Z " fill="#EAA30C" transform="translate(368,375)"/>
<path d="M0 0 C-6.54158399 3.65111665 -12.63879629 3.29887594 -20 3 C-20 2.67 -20 2.34 -20 2 C-17.41842632 1.46867611 -14.83538244 0.94965621 -12.25 0.4375 C-11.52039063 0.28603516 -10.79078125 0.13457031 -10.0390625 -0.02148438 C-6.33442927 -0.74557178 -3.60677678 -1.09817231 0 0 Z " fill="#FEF7A2" transform="translate(436,364)"/>
<path d="M0 0 C2.78637633 4.1795645 1.79562512 6.14668677 1 11 C0.01 11.33 -0.98 11.66 -2 12 C-2 13.65 -2 15.3 -2 17 C-2.66 17 -3.32 17 -4 17 C-2.68 11.39 -1.36 5.78 0 0 Z " fill="#EAA811" transform="translate(507,311)"/>
<path d="M0 0 C0 0.66 0 1.32 0 2 C-3.15314785 4.10209857 -3.86103081 4.2434761 -7.44921875 4.1953125 C-8.72055664 4.18564453 -8.72055664 4.18564453 -10.01757812 4.17578125 C-10.89865234 4.15902344 -11.77972656 4.14226562 -12.6875 4.125 C-13.58017578 4.11597656 -14.47285156 4.10695312 -15.39257812 4.09765625 C-17.59532314 4.07409748 -19.79752588 4.04120329 -22 4 C-22 3.67 -22 3.34 -22 3 C-21.05898438 2.95101562 -20.11796875 2.90203125 -19.1484375 2.8515625 C-17.28058594 2.73941406 -17.28058594 2.73941406 -15.375 2.625 C-14.14523437 2.55539063 -12.91546875 2.48578125 -11.6484375 2.4140625 C-7.66370026 1.96183322 -3.92988673 0 0 0 Z " fill="#FFF99B" transform="translate(344,215)"/>
<path d="M0 0 C5.54050113 0.56825653 10.03715966 2.62886517 15 5 C14.34 5.66 13.68 6.32 13 7 C12.01 7 11.02 7 10 7 C10 6.01 10 5.02 10 4 C6.7 3.67 3.4 3.34 0 3 C0 2.01 0 1.02 0 0 Z " fill="#E99E06" transform="translate(250,357)"/>
<path d="M0 0 C2.57619276 1.91315119 2.98395232 2.9016314 3.51171875 6.13671875 C3.56972656 7.30847656 3.62773438 8.48023438 3.6875 9.6875 C3.75324219 10.86699219 3.81898438 12.04648437 3.88671875 13.26171875 C3.92410156 14.16535156 3.96148438 15.06898438 4 16 C1.33068994 10.87447606 -0.35375916 5.83702609 0 0 Z " fill="#ACACAC" transform="translate(599,376)"/>
<path d="M0 0 C2.31 0.33 4.62 0.66 7 1 C4.4345406 3.5654594 2.52313332 3.54046087 -1 4 C-1.33 6.64 -1.66 9.28 -2 12 C-2.33 12 -2.66 12 -3 12 C-2.88541307 10.56163249 -2.75790884 9.12429034 -2.625 7.6875 C-2.55539062 6.88699219 -2.48578125 6.08648437 -2.4140625 5.26171875 C-2 3 -2 3 0 0 Z " fill="#FEF397" transform="translate(346,364)"/>
<path d="M0 0 C0 0.33 0 0.66 0 1 C-5.28 1 -10.56 1 -16 1 C-16 0.34 -16 -0.32 -16 -1 C-9.93179132 -2.08360869 -5.89893243 -1.79074734 0 0 Z " fill="#A9A9A9" transform="translate(444,58)"/>
<path d="M0 0 C1.32 0.66 2.64 1.32 4 2 C4 3.32 4 4.64 4 6 C2.35 6 0.7 6 -1 6 C-1.33 5.01 -1.66 4.02 -2 3 C-1.34 2.01 -0.68 1.02 0 0 Z " fill="#9E9E9E" transform="translate(312,523)"/>
<path d="M0 0 C-1.93270582 1.93270582 -5.38641388 1.62663055 -8 2 C-8.33 2.33 -8.66 2.66 -9 3 C-10.51928038 3.07179964 -12.04167482 3.08392007 -13.5625 3.0625 C-14.38878906 3.05347656 -15.21507812 3.04445313 -16.06640625 3.03515625 C-16.70449219 3.02355469 -17.34257812 3.01195312 -18 3 C-15.03837914 1.37522189 -12.30733073 0.48304114 -9 -0.1875 C-8.154375 -0.36667969 -7.30875 -0.54585938 -6.4375 -0.73046875 C-3.96978589 -1.00334098 -2.34150494 -0.76424119 0 0 Z " fill="#FFF593" transform="translate(416,368)"/>
<path d="M0 0 C1.28132813 0.00902344 2.56265625 0.01804687 3.8828125 0.02734375 C4.87023437 0.03894531 5.85765625 0.05054688 6.875 0.0625 C6.875 0.3925 6.875 0.7225 6.875 1.0625 C1.595 1.7225 -3.685 2.3825 -9.125 3.0625 C-9.125 2.4025 -9.125 1.7425 -9.125 1.0625 C-6.12186252 -0.43906874 -3.33432478 -0.03031204 0 0 Z " fill="#ECAB13" transform="translate(438.125,360.9375)"/>
<path d="M0 0 C0.33 0 0.66 0 1 0 C1 4.95 1 9.9 1 15 C0.34 15 -0.32 15 -1 15 C-1 16.98 -1 18.96 -1 21 C-1.33 21 -1.66 21 -2 21 C-2.125 13.25 -2.125 13.25 -1 11 C-0.7724985 9.12943209 -0.59037189 7.25314042 -0.4375 5.375 C-0.35371094 4.37210937 -0.26992187 3.36921875 -0.18359375 2.3359375 C-0.12300781 1.56507813 -0.06242187 0.79421875 0 0 Z " fill="#FEF9AB" transform="translate(128,325)"/>
<path d="M0 0 C0.33 0 0.66 0 1 0 C1.36923077 7.38461538 1.36923077 7.38461538 -0.5 10.5 C-0.995 10.995 -1.49 11.49 -2 12 C-2.28571429 3.42857143 -2.28571429 3.42857143 0 0 Z " fill="#A9A9A9" transform="translate(29,376)"/>
<path d="M0 0 C2.12636813 0.28151916 4.25108528 0.57553263 6.375 0.875 C7.55835938 1.03742188 8.74171875 1.19984375 9.9609375 1.3671875 C13 2 13 2 15 4 C12.36 4 9.72 4 7 4 C7 3.34 7 2.68 7 2 C4.69 1.67 2.38 1.34 0 1 C0 0.67 0 0.34 0 0 Z " fill="#FEF596" transform="translate(246,375)"/>
<path d="M0 0 C3.09423168 3.09423168 3.93706005 6.5523812 4.125 10.875 C4.08375 11.57625 4.0425 12.2775 4 13 C2 10 2 10 1 8 C0.34 8 -0.32 8 -1 8 C-0.67 5.36 -0.34 2.72 0 0 Z " fill="#E59F09" transform="translate(117,292)"/>
<path d="M0 0 C4.29 0.66 8.58 1.32 13 2 C13 2.33 13 2.66 13 3 C9.04 3 5.08 3 1 3 C0.67 2.01 0.34 1.02 0 0 Z " fill="#ECA919" transform="translate(95,364)"/>
<path d="M0 0 C-8.57914052 4.48455073 -8.57914052 4.48455073 -14 3 C-12.42274653 2.29866401 -10.83788667 1.614417 -9.25 0.9375 C-7.92742187 0.36322266 -7.92742187 0.36322266 -6.578125 -0.22265625 C-3.84743691 -1.04600008 -2.63098653 -0.9773992 0 0 Z " fill="#E9AE16" transform="translate(372,360)"/>
<path d="M0 0 C0.33 0 0.66 0 1 0 C1.3152595 5.98993047 0.68219822 9.63560356 -2 15 C-3.53760842 11.92478317 -2.36599236 9.65324882 -1.5625 6.375 C-1.27503906 5.18648438 -0.98757813 3.99796875 -0.69140625 2.7734375 C-0.46324219 1.85820312 -0.23507812 0.94296875 0 0 Z " fill="#FEF48E" transform="translate(546,322)"/>
<path d="M0 0 C0.33 0 0.66 0 1 0 C1.21192221 5.19209404 0.5912689 9.126739 -1 14 C-1.33 14 -1.66 14 -2 14 C-2.3690205 4.58997722 -2.3690205 4.58997722 0 0 Z " fill="#EC9E03" transform="translate(510,300)"/>
<path d="M0 0 C1.33641852 0.32074044 2.66869885 0.65864073 4 1 C5.216875 1.28875 6.43375 1.5775 7.6875 1.875 C8.780625 2.24625 9.87375 2.6175 11 3 C11.33 3.99 11.66 4.98 12 6 C10.37433394 5.52309796 8.74948689 5.04340334 7.125 4.5625 C6.22007812 4.29566406 5.31515625 4.02882812 4.3828125 3.75390625 C2 3 2 3 0 2 C0 1.34 0 0.68 0 0 Z " fill="#E9A40D" transform="translate(282,213)"/>
<path d="M0 0 C4.81449408 0.48144941 7.60171741 0.8008587 12 3 C8.37 3 4.74 3 1 3 C0.67 2.01 0.34 1.02 0 0 Z " fill="#EDAE14" transform="translate(460,110)"/>
<path d="M0 0 C0.33 0.66 0.66 1.32 1 2 C0.34 2 -0.32 2 -1 2 C-1 2.66 -1 3.32 -1 4 C-1.99 4.495 -1.99 4.495 -3 5 C-2.67 5.66 -2.34 6.32 -2 7 C-3.65 7.33 -5.3 7.66 -7 8 C-7.33 7.01 -7.66 6.02 -8 5 C-4.04 2.525 -4.04 2.525 0 0 Z " fill="#B5B5B5" transform="translate(286,549)"/>
<path d="M0 0 C3.3 0.33 6.6 0.66 10 1 C10 1.99 10 2.98 10 4 C7.03 3.67 4.06 3.34 1 3 C0.67 2.01 0.34 1.02 0 0 Z " fill="#FCF9BC" transform="translate(278,385)"/>
<path d="M0 0 C2.7839183 1.39195915 2.97898997 3.15575779 4 6 C6.64 6.33 9.28 6.66 12 7 C12 7.33 12 7.66 12 8 C8.7 8 5.4 8 2 8 C0 2.25 0 2.25 0 0 Z " fill="#FEF58F" transform="translate(92,360)"/>
<path d="M0 0 C0.66 0.33 1.32 0.66 2 1 C1.5205537 5.21912747 0.83374881 7.79663178 -2 11 C-2 7.79604584 -1.25664978 5.90600261 0 3 C-0.66 3 -1.32 3 -2 3 C-2 2.34 -2 1.68 -2 1 C-1.34 0.67 -0.68 0.34 0 0 Z " fill="#B2B2B2" transform="translate(570,492)"/>
<path d="M0 0 C7.56634615 -0.37211538 7.56634615 -0.37211538 9.76171875 1.51171875 C10.17035156 2.00285156 10.57898438 2.49398438 11 3 C9.54077307 2.88590407 8.08259402 2.75834456 6.625 2.625 C5.40683594 2.52058594 5.40683594 2.52058594 4.1640625 2.4140625 C2 2 2 2 0 0 Z " fill="#E6A90F" transform="translate(244,373)"/>
<path d="M0 0 C0 0.66 0 1.32 0 2 C-2.52475462 3.26237731 -4.31200466 3.09856404 -7.125 3.0625 C-8.03507813 3.05347656 -8.94515625 3.04445313 -9.8828125 3.03515625 C-10.58148438 3.02355469 -11.28015625 3.01195312 -12 3 C-7.97258718 0.8965105 -4.56872973 0 0 0 Z " fill="#EBB219" transform="translate(184,346)"/>
<path d="M0 0 C0.66 0.33 1.32 0.66 2 1 C0.26440562 4.057952 -1.38472619 6.63379989 -4 9 C-4.66 8.67 -5.32 8.34 -6 8 C-4.625 6 -4.625 6 -3 4 C-2.34 4 -1.68 4 -1 4 C-0.67 2.68 -0.34 1.36 0 0 Z " fill="#ACACAC" transform="translate(57,92)"/>
<path d="M0 0 C0 0.66 0 1.32 0 2 C1.32 2.66 2.64 3.32 4 4 C-1.41538462 4.36923077 -1.41538462 4.36923077 -4.375 2.5 C-4.91125 2.005 -5.4475 1.51 -6 1 C-3 0 -3 0 0 0 Z " fill="#ADADAD" transform="translate(532,72)"/>
<path d="M0 0 C5.94 0.99 5.94 0.99 12 2 C12 2.33 12 2.66 12 3 C8.37 3 4.74 3 1 3 C0.67 2.01 0.34 1.02 0 0 Z " fill="#ACACAC" transform="translate(482,63)"/>
<path d="M0 0 C2.31 0 4.62 0 7 0 C7 0.66 7 1.32 7 2 C4.29120665 3.35439668 1.99066732 3.06501451 -1 3 C-0.67 2.01 -0.34 1.02 0 0 Z " fill="#ACACAC" transform="translate(481,569)"/>
<path d="M0 0 C0.66 0 1.32 0 2 0 C1.34 3.3 0.68 6.6 0 10 C-0.33 10 -0.66 10 -1 10 C-1.125 2.25 -1.125 2.25 0 0 Z " fill="#A9A9A9" transform="translate(601,436)"/>
<path d="M0 0 C0.99 0 1.98 0 3 0 C3.12375 0.53625 3.2475 1.0725 3.375 1.625 C4.12206016 4.4638286 5.05303364 7.22223202 6 10 C3.72328514 7.83170013 1.72813851 5.63335392 0 3 C0 2.01 0 1.02 0 0 Z " fill="#E9A50D" transform="translate(501,348)"/>
<path d="M0 0 C3.16717283 1.58358642 4.73268318 2.45263699 6.3125 5.6875 C6.539375 6.450625 6.76625 7.21375 7 8 C6.34 7.67 5.68 7.34 5 7 C5 6.34 5 5.68 5 5 C3.68 4.67 2.36 4.34 1 4 C0.67 2.68 0.34 1.36 0 0 Z " fill="#FDF9A6" transform="translate(490,211)"/>
<path d="M0 0 C0 0.66 0 1.32 0 2 C-0.99 2.495 -0.99 2.495 -2 3 C-2 3.66 -2 4.32 -2 5 C-3.98 5 -5.96 5 -8 5 C-3.16129032 0 -3.16129032 0 0 0 Z " fill="#FCF9AD" transform="translate(148,203)"/>
<path d="M0 0 C0.99 0 1.98 0 3 0 C3 2.31 3 4.62 3 7 C2.01 7.33 1.02 7.66 0 8 C0 5.36 0 2.72 0 0 Z " fill="#F2B20F" transform="translate(82,192)"/>
<path d="M0 0 C2.6875 0.3125 2.6875 0.3125 5 1 C5 1.66 5 2.32 5 3 C2.36 3 -0.28 3 -3 3 C-1.8125 1.4375 -1.8125 1.4375 0 0 Z " fill="#A9A9A9" transform="translate(97,70)"/>
<path d="M0 0 C0.6875 1.75 0.6875 1.75 1 4 C-0.4375 6.25 -0.4375 6.25 -2 8 C-2.66 6.35 -3.32 4.7 -4 3 C-2.68 2.01 -1.36 1.02 0 0 Z " fill="#B6B6B6" transform="translate(578,480)"/>
<path d="M0 0 C1.99097846 2.98646769 2.94124926 5.59687262 4 9 C2.68 8.67 1.36 8.34 0 8 C0 5.36 0 2.72 0 0 Z " fill="#E7A717" transform="translate(472,354)"/>
<path d="M0 0 C-1.4375 1.5625 -1.4375 1.5625 -4 3 C-7.05380927 2.96846324 -9.99653222 2.53266629 -13 2 C-13 1.67 -13 1.34 -13 1 C-8.62426048 0.40667939 -4.42471556 -0.13827236 0 0 Z " fill="#EF9A01" transform="translate(293,105)"/>
<path d="" fill="#B5B5B5" transform="translate(0,0)"/>
<path d="" fill="#B5B5B5" transform="translate(0,0)"/>
</svg>
