<svg xmlns="http://www.w3.org/2000/svg" xmlns:xlink="http://www.w3.org/1999/xlink" version="1.1" x="0px" y="0px" viewBox="0 0 382.87 231.65" xml:space="preserve">
<g>
	<path d="M165.04,129.46h0.01H165.04z"></path>
	<path d="M165,129.45c0,0,0.06-0.03,0.09-0.04C165.06,129.42,165.03,129.44,165,129.45L165,129.45z"></path>
	<path d="M165.03,129.46c0,0,0.01,0,0.02,0l0,0C165.05,129.46,165.04,129.46,165.03,129.46z"></path>
	<path d="M98.95,101.39V0h15.69c3.4,0,6.15,2.75,6.15,6.15v61.7c4.68-5.46,13.65-8.97,23.79-8.97   c23.89,0,40.78,16.23,41.69,40.44c0.91,24.36-18.39,44.19-42.77,44.57c-25.8,0.4-44.54-16.86-44.54-42.5L98.95,101.39z    M164.46,101.39c0-12.87-8.97-22.23-21.84-22.23s-21.84,9.36-21.84,22.23s9.36,22.23,21.84,22.23S164.46,113.87,164.46,101.39z"></path>
	<path d="M197.21,101.39c0-25.35,21.84-42.51,44.07-42.51c25.35,0,43.29,17.16,43.29,42.51v40.11   c0,0.25-0.2,0.45-0.45,0.45H268.9c-3.41,0-6.17-2.76-6.17-6.17v-33.79c0-13.87-12.4-24.91-26.05-22.46   c-10.31,1.85-17.62,10.48-17.62,21.86v34.42c0,3.39-2.75,6.14-6.14,6.14h-15.25c-0.25,0-0.45-0.2-0.45-0.45v-40.11H197.21z"></path>
	<path d="M165.08,129.36l0.01-0.01L165.08,129.36z"></path>
	<path d="M165.04,129.35c0,0,0.06-0.03,0.09-0.04C165.1,129.32,165.07,129.34,165.04,129.35L165.04,129.35z"></path>
	<path d="M376.68,58.78h-15.65v0.1h-0.04v4.88c-6.53-3.33-14.21-5.11-22.66-4.98c-17.55,0.27-32.48,10.63-39.11,25.5   c-2.61,5.81-3.96,12.31-3.7,19.16c0.91,24.21,17.79,40.44,41.69,40.44c9.9,0,18.66-3.36,23.79-8.6v6.65h15.69   c2.4,0.13,4.53-1.4,5.68-3.81c0.35-0.74,0.51-1.58,0.51-2.45V64.95c0-3.42-2.77-6.19-6.19-6.19L376.68,58.78z M339.19,123.51   c-12.48,0-21.84-9.75-21.84-22.23c0-3.21,0.58-6.2,1.65-8.88c3.24-8.02,10.82-13.25,20.15-13.25c12.87,0,21.84,9.36,21.84,22.23   c0,3.11-0.56,6.06-1.6,8.72c-3.15,7.96-10.58,13.4-20.2,13.4L339.19,123.51z"></path>
	<path d="M81.88,58.78H66.23v0.1h-0.04v5.01c-7.2-3.72-15.82-5.55-25.32-5.02C24.07,59.8,9.88,70.47,3.56,85.1   c-2.49,5.72-3.77,12.05-3.53,18.63c0.88,24.44,17.91,40.83,42.02,40.83c10.22,0,19.65-3.54,24.37-9.04v21.35   c0,3.19-0.64,6.26-1.8,9.06c-3.53,8.41-11.74,14.41-21.33,14.14c-10.64-0.3-18.41-6.66-20.83-16.2c-0.97-3.84-4.35-6.59-8.31-6.59   H0.82c0,0,0,0.07,0,0.1H0.77c0,25.94,17.29,42.05,43.23,42.05c17.71,0,33.65-9.76,40.48-25.44c2.29-5.22,3.58-11.1,3.58-17.5V64.95   c0-3.42-2.77-6.19-6.19-6.19L81.88,58.78z M44.05,124.02c-12.58,0-22.01-9.82-22.01-22.4c0-3.23,0.59-6.24,1.66-8.95   c3.26-8.08,10.9-13.35,20.3-13.35c12.97,0,22.01,9.43,22.01,22.4c0,3.14-0.56,6.1-1.61,8.79c-3.17,8.02-10.66,13.51-20.36,13.51   L44.05,124.02z"></path>
	<g>
		<path fill="#00a530" d="M99.34,212.8c0.72,5.62,3.17,9.99,7.46,13.34c4.67,3.66,11.31,5.51,19.73,5.51c7.4,0,13.42-1.7,17.9-5.05    c4.41-3.3,6.56-7.65,6.56-13.3c0-2.58-0.42-4.87-1.26-6.8c-0.84-1.94-1.83-3.48-2.94-4.59c-1.12-1.11-2.69-2.15-4.68-3.07    c-2.06-0.96-3.9-1.65-5.46-2.07c-1.61-0.43-3.71-0.93-6.23-1.48l-3.55-0.65c-1.54-0.28-2.76-0.53-3.65-0.73    c-0.88-0.2-1.92-0.44-3.12-0.72c-1.29-0.3-2.28-0.6-3-0.92c-0.7-0.31-1.44-0.71-2.18-1.19c-0.9-0.58-1.56-1.3-1.95-2.15    c-0.37-0.78-0.55-1.65-0.55-2.57c0-2.62,1.2-4.77,3.47-6.22c2.1-1.34,4.95-2.02,8.49-2.02c9.16,0,12.23,4.63,13.08,8.99h11.91    c-0.84-5.22-3.14-9.28-7-12.4c-4.23-3.41-10.2-5.14-17.74-5.14c-7.01,0-12.8,1.6-17.2,4.77c-4.32,3.1-6.42,7.51-6.42,13.47    c0,2.95,0.53,5.5,1.58,7.56c1.04,2.04,2.56,3.61,4.65,4.8c2.23,1.27,4.37,2.24,6.38,2.88c2.05,0.66,4.75,1.31,8.04,1.94    c0.68,0.17,1.8,0.38,3.39,0.65c1.68,0.29,2.86,0.51,3.56,0.67c0.69,0.16,1.67,0.4,2.96,0.72c1.43,0.36,2.44,0.72,3.09,1.12    c0.56,0.34,1.2,0.79,1.92,1.34c0.87,0.66,1.5,1.43,1.87,2.29c0.36,0.82,0.54,1.74,0.54,2.73c0,2.62-1.24,4.81-3.58,6.34    c-2.18,1.42-5.24,2.15-9.1,2.15c-9.99,0-13.49-5.28-14.59-10.18H99.36L99.34,212.8z"></path>
		<path fill="#00a530" d="M186.54,178.46c3.65,0,6.51,0.76,8.51,2.26c2.13,1.6,3.2,3.77,3.2,6.46s-1.38,4.75-4,5.8    c-2.21,0.89-6.16,1.72-12.08,2.55c-7.57,1.08-13.5,3.04-17.61,5.82c-3.93,2.66-5.85,6.76-5.85,12.54s1.75,9.79,5.36,12.81    c3.63,3.04,8.57,4.58,14.67,4.58c4.61,0,8.22-0.67,10.72-1.99c2.49-1.32,4.58-3.22,6.19-5.64l0.42-0.63h2.23l0.17,1.22    c0.43,3.21,0.94,4.81,1.31,5.6h12.51c-0.8-1.7-1.19-4.21-1.19-7.69v-31.27c0-14.28-8-21.23-24.46-21.23    c-8.08,0-14.3,1.82-18.48,5.41c-3.82,3.27-5.94,7.21-6.47,12.01h11.73c0.77-4.2,3.78-8.63,13.1-8.63L186.54,178.46z     M182.71,222.74c-9.09,0-11-5-11-9.2c0-3.2,1.17-5.63,3.49-7.22c2.08-1.43,5.46-2.66,10.31-3.75c7.04-1.64,9.85-2.77,10.97-3.43    l2.13-1.26v11.7c0,3.6-1.47,6.74-4.37,9.32c-2.85,2.54-6.73,3.83-11.54,3.83L182.71,222.74z"></path>
		<path fill="#00a530" d="M263.66,229.86h13.46v-38.72c0-6.39-1.85-11.65-5.5-15.63c-3.67-4.01-8.34-5.95-14.29-5.95    c-7.46,0-13.02,3.08-17.01,9.4l-0.12,0.19h-2.85v-7.92h-13.1v58.62h13.46V196.4c0-4.49,1.31-8.24,3.89-11.12    c2.62-2.94,5.98-4.43,9.98-4.43c3.75,0,6.74,1.2,8.89,3.58c2.11,2.34,3.18,5.4,3.18,9.1v36.32L263.66,229.86z"></path>
		<path fill="#00a530" d="M285.23,179.18h8.51v37.47c0,4.83,1.37,8.16,4.2,10.17c2.93,2.09,6.65,3.15,11.04,3.15    c3.54,0,6.48-0.05,8.77-0.16v-9.19l-3.34,0.09c-4.89,0-7.56-2.67-7.56-7.52v-34h10.54v-7.95h-10.54v-10.41    c0-4.83-3.93-8.76-8.76-8.76h-4.35v19.17h-8.51v7.95V179.18z"></path>
		<path fill="#00a530" d="M353.89,169.55c-8.41,0-15.39,2.97-20.76,8.82c-5.4,5.89-8.13,13.33-8.13,22.11s2.73,16.65,8.13,22.46    c5.36,5.78,12.87,8.71,22.32,8.71c7.22,0,13.22-1.83,17.81-5.45c4.09-3.22,6.83-7.2,8.17-11.85h-13.3    c-2.26,5.01-6.56,7.55-12.8,7.55c-4.93,0-8.89-1.49-11.79-4.43c-2.84-2.88-4.63-6.97-5.31-12.13l-0.21-1.6h44.75    c-0.21-10.23-2.76-18.52-7.59-24.66c-5.04-6.41-12-9.52-21.29-9.52L353.89,169.55z M368.69,195.31h-30.51l0.3-1.67    c1.73-9.51,6.99-14.34,15.65-14.34c4.05,0,7.45,1.37,10.11,4.08c2.63,2.68,4.1,6.19,4.36,10.43L368.69,195.31L368.69,195.31z     M353.07,162.31h10.43l13.4-14.06h-15.89L353.07,162.31L353.07,162.31z"></path>
	</g>
</g>
</svg>